<svg xmlns="http://www.w3.org/2000/svg" width="204" height="192" version="1.1"><path fill="#0151FB" d="M0 0 C1.52159075 -0.00779659 3.04317723 -0.01647049 4.5647583 -0.02597046 C7.74188386 -0.04081597 10.91856469 -0.04037229 14.09570312 -0.02978516 C18.12812161 -0.0182263 22.15869349 -0.05201511 26.19080734 -0.0984745 C29.33113902 -0.12822837 32.47104062 -0.12965516 35.61148834 -0.12345505 C37.09597672 -0.12446828 38.58049352 -0.13469041 40.06484222 -0.15507889 C61.55541011 -0.41402682 78.48580016 11.26135767 93.57421875 25.90234375 C115.33170278 48.9418979 122.03074351 76.44471243 121.33496094 107.41992188 C120.48427752 127.94974827 110.47301381 148.27432659 97.203125 163.6015625 C96.59984375 164.34921875 95.9965625 165.096875 95.375 165.8671875 C85.73940447 177.44609641 70.81255774 188.47535804 56.203125 192.6015625 C53.78071657 192.79405369 51.34939199 192.88752218 48.91943359 192.90795898 C48.21606873 192.9162825 47.51270386 192.92460602 46.7880249 192.93318176 C44.47581338 192.95716128 42.16388497 192.96604101 39.8515625 192.97265625 C38.2297864 192.98163509 36.6080111 192.99075715 34.98623657 193.00001526 C31.58862301 193.01647752 28.19110761 193.02419972 24.79345703 193.02709961 C20.4695805 193.03246598 16.14664593 193.07008463 11.82303429 193.11584377 C8.47181965 193.14580335 5.1208261 193.15282731 1.76948929 193.15382576 C0.17728 193.1579944 -1.41493203 193.1702915 -3.0070076 193.19134331 C-24.1444419 193.44849061 -39.91436033 182.93341921 -54.796875 168.6015625 C-76.79998232 144.99580093 -83.73490271 117.89957641 -82.91992188 86.41845703 C-81.81635923 61.15475513 -67.73216952 37.71056974 -49.796875 20.6015625 C-42.51642219 14.19440204 -34.62224166 8.67843415 -25.796875 4.6015625 C-24.84753334 4.11357178 -24.84753334 4.11357178 -23.87901306 3.61572266 C-16.08108688 -0.01684224 -8.42557732 -0.01815775 0 0 Z M-29.796875 44.6015625 C-29.796875 45.2615625 -29.796875 45.9215625 -29.796875 46.6015625 C-30.66505859 46.941875 -30.66505859 46.941875 -31.55078125 47.2890625 C-41.42340777 53.05811034 -46.48663479 68.18270484 -50 78.44921875 C-51.00355469 82.41916306 -51.34467739 86.53178399 -51.796875 90.6015625 C-16.816875 90.6015625 18.163125 90.6015625 54.203125 90.6015625 C54.203125 94.8915625 54.203125 99.1815625 54.203125 103.6015625 C19.223125 103.6015625 -15.756875 103.6015625 -51.796875 103.6015625 C-48.60202324 124.36809894 -41.1412135 141.83317714 -23.796875 154.6015625 C-6.57586806 166.04810576 13.05228495 170.37228346 33.54296875 166.98828125 C47.80449623 164.07240693 60.11484158 157.05150136 70.203125 146.6015625 C70.76257813 146.02792969 71.32203125 145.45429688 71.8984375 144.86328125 C84.83985395 130.66837682 90.6508058 112.65997384 90.203125 93.6015625 C88.77680826 73.55935312 80.54384639 56.79350442 66.00390625 42.88671875 C39.48301984 21.24833862 -4.72523804 18.83349118 -29.796875 44.6015625 Z" transform="translate(82.796875,-0.6015625)"/><path fill="#184ECB" d="M0 0 C0.66 0 1.32 0 2 0 C1.01 4.95 0.02 9.9 -1 15 C33.98 15 68.96 15 105 15 C105 19.29 105 23.58 105 28 C70.02 28 35.04 28 -1 28 C-0.67 30.97 -0.34 33.94 0 37 C-0.33 37 -0.66 37 -1 37 C-2.79132273 32.46900722 -3.0036454 31.01822701 -2 26 C32.98 26 67.96 26 104 26 C104 22.7 104 19.4 104 16 C69.02 16 34.04 16 -2 16 C-1 5 -1 5 0 0 Z" transform="translate(32,75)"/><path fill="#094CF4" d="M0 0 C0.86866251 2.43555374 1.12764379 3.63655109 0.2578125 6.11328125 C-0.11601562 6.83902344 -0.48984375 7.56476562 -0.875 8.3125 C-2.80239177 12.31962035 -3.54199772 15.60317808 -4 20 C-4.33 20.33 -4.66 20.66 -5 21 C-5 23.03005482 -4.99642412 25.06064427 -4.9375 27.08984375 C-5 29 -5 29 -6 31 C-6.06055112 32.56004986 -6.0603273 34.12271768 -6.02734375 35.68359375 C-6.01509766 36.61107422 -6.00285156 37.53855469 -5.99023438 38.49414062 C-5.95514676 40.45254921 -5.91609967 42.41089095 -5.87304688 44.36914062 C-5.85661133 45.76229492 -5.85661133 45.76229492 -5.83984375 47.18359375 C-5.82300537 48.03493896 -5.80616699 48.88628418 -5.78881836 49.76342773 C-6 52 -6 52 -8 55 C-10.45005277 52.54994723 -9.24166064 46.15555709 -9.25 42.875 C-9.23388088 27.22678492 -6.25984936 14.28218059 0 0 Z" transform="translate(9,53)"/><path fill="#144CE7" d="M0 0 C4.1653758 6.942293 3.1225475 15.65442059 3.0625 23.4375 C3.05798828 24.55060547 3.05347656 25.66371094 3.04882812 26.81054688 C3.03711193 29.54042101 3.02070699 32.27018174 3 35 C2.01 35.495 2.01 35.495 1 36 C0.3475014 23.9895138 -0.16631339 12.03000164 0 0 Z" transform="translate(201,72)"/><path fill="#1D4ED4" d="M0 0 C4.71461912 4.1138181 7.08247097 8.54696867 9.6875 14.1875 C10.07744141 14.98736328 10.46738281 15.78722656 10.86914062 16.61132812 C13.54257851 22.30095234 15.03713315 27.79440127 16 34 C13.37643629 31.37643629 12.36292754 28.38253835 11 25 C10.65453125 24.17242187 10.3090625 23.34484375 9.953125 22.4921875 C9.59734375 21.62851562 9.2415625 20.76484375 8.875 19.875 C8.54242188 19.06804688 8.20984375 18.26109375 7.8671875 17.4296875 C6.9877438 14.96566056 6.44888507 12.57421845 6 10 C5.34 10 4.68 10 4 10 C1.125 3.375 1.125 3.375 0 0 Z" transform="translate(185,38)"/><path fill="#1D4FCE" d="M0 0 C0.33 0 0.66 0 1 0 C1.32171799 7.81655558 1.20979013 13.83969893 -2 21 C-2.309375 22.2375 -2.61875 23.475 -2.9375 24.75 C-4.06569627 28.20095328 -5.24423003 29.70352502 -8 32 C-7.58402437 30.60396057 -7.16715317 29.20818801 -6.75 27.8125 C-6.47929687 26.90242188 -6.20859375 25.99234375 -5.9296875 25.0546875 C-5.28892332 22.94931948 -4.62609343 20.85058352 -3.9453125 18.7578125 C-1.90876469 12.4400547 -0.44936546 6.62814057 0 0 Z" transform="translate(172,100)"/><path fill="#2458D3" d="M0 0 C6.6258672 6.6258672 7.03407663 18.15467868 7.0625 26.9375 C7.0465517 28.95837779 7.02734857 30.97924434 7 33 C6.67 33 6.34 33 6 33 C4.01183387 21.59217299 4.01183387 21.59217299 3.5625 16.3125 C3.16592138 12.28061738 2.0385903 8.72982482 0.62109375 4.9453125 C0 3 0 3 0 0 Z" transform="translate(167,67)"/><path fill="#1C52D2" d="M0 0 C0.86866251 2.43555374 1.12764379 3.63655109 0.2578125 6.11328125 C-0.30292969 7.20189453 -0.30292969 7.20189453 -0.875 8.3125 C-2.80239177 12.31962035 -3.54199772 15.60317808 -4 20 C-4.33 20.33 -4.66 20.66 -5 21 C-4.96777152 23.03039402 -4.93188381 25.06128092 -4.83984375 27.08984375 C-5 29 -5 29 -7 31 C-8.12240197 24.87469658 -7.80018622 20.77656629 -5.75 14.9375 C-5.53214844 14.26912109 -5.31429688 13.60074219 -5.08984375 12.91210938 C-3.62308725 8.49897358 -1.88003963 4.25220727 0 0 Z" transform="translate(9,53)"/><path fill="#164ACD" d="M0 0 C0.93199219 0.47050781 1.86398438 0.94101563 2.82421875 1.42578125 C11.13497928 5.51923906 18.82560654 8.37552898 28 10 C28 10.33 28 10.66 28 11 C22.02585936 11.54310369 17.38252003 9.98295647 11.76953125 7.97265625 C9.11984757 6.99297612 9.11984757 6.99297612 6.80859375 6.45703125 C4.15854634 5.78736484 2.20416087 4.59189396 0 3 C0 2.01 0 1.02 0 0 Z" transform="translate(63,156)"/><path fill="#0E4BDE" d="M0 0 C3.59469482 3.49198926 6.78775991 7.14531189 10 11 C11.63163987 12.70763405 13.30543023 14.35384651 15 16 C12.03 15.505 12.03 15.505 9 15 C9 14.34 9 13.68 9 13 C8.34 13 7.68 13 7 13 C7 12.01 7 11.02 7 10 C6.01 9.67 5.02 9.34 4 9 C3.67 8.01 3.34 7.02 3 6 C0.98491642 5.26676204 0.98491642 5.26676204 -1 5 C-0.67 3.35 -0.34 1.7 0 0 Z" transform="translate(42,136)"/><path fill="#2151CF" d="M0 0 C1.0236264 0.00636726 1.0236264 0.00636726 2.06793213 0.01286316 C4.23840504 0.02959903 6.40793479 0.06723916 8.578125 0.10546875 C10.05337197 0.12052229 11.52863355 0.13420953 13.00390625 0.14648438 C16.61228344 0.17948498 20.2201121 0.23123108 23.828125 0.29296875 C24.323125 1.28296875 24.323125 1.28296875 24.828125 2.29296875 C23.72525146 2.28511353 23.72525146 2.28511353 22.60009766 2.27709961 C19.21778239 2.25610959 15.8354809 2.24323924 12.453125 2.23046875 C10.71869141 2.21790039 10.71869141 2.21790039 8.94921875 2.20507812 C2.17411941 2.18593943 -4.44827226 2.44074874 -11.171875 3.29296875 C-7.60752793 -0.11043313 -4.81568146 -0.0592092 0 0 Z" transform="translate(92.171875,24.70703125)"/><path fill="#124CDA" d="M0 0 C0 4.33227081 -1.36489615 6.21093158 -4.0625 9.5625 C-7.77266281 12.64114574 -11.39743229 13.76663218 -16 15 C-12.81240258 11.67958602 -9.37914601 8.69646062 -5.90625 5.68359375 C-3.85096483 3.86837262 -1.89897779 1.97810186 0 0 Z" transform="translate(156,142)"/><path fill="#1B4FD8" d="M0 0 C4.52531421 2.78685039 7.82903188 5.724847 11.375 9.75 C12.24898437 10.73484375 13.12296875 11.7196875 14.0234375 12.734375 C15.00183594 13.85585938 15.00183594 13.85585938 16 15 C15.67 15.66 15.34 16.32 15 17 C13.36828877 15.59106853 11.74486055 14.17254042 10.125 12.75 C8.76761719 11.56664062 8.76761719 11.56664062 7.3828125 10.359375 C5.20898857 8.20693294 4.27777828 6.69369476 3 4 C2.01 3.34 1.02 2.68 0 2 C0 1.34 0 0.68 0 0 Z" transform="translate(167,18)"/><path fill="#174EDA" d="M0 0 C0 3 0 3 -2.1875 5.26171875 C-3.115625 6.06222656 -4.04375 6.86273438 -5 7.6875 C-5.928125 8.49574219 -6.85625 9.30398437 -7.8125 10.13671875 C-8.8953125 11.05904297 -8.8953125 11.05904297 -10 12 C-10.66 11.67 -11.32 11.34 -12 11 C-10.6875 8.5 -10.6875 8.5 -9 6 C-8.01 6 -7.02 6 -6 6 C-6 5.34 -6 4.68 -6 4 C-5.34 4 -4.68 4 -4 4 C-4 3.01 -4 2.02 -4 1 C-2.68 0.67 -1.36 0.34 0 0 Z" transform="translate(176,165)"/><path fill="#1A51D3" d="M0 0 C1 3 1 3 0.3190918 4.88525391 C-0.05046631 5.57538574 -0.42002441 6.26551758 -0.80078125 6.9765625 C-1.20103516 7.729375 -1.60128906 8.4821875 -2.01367188 9.2578125 C-2.44228516 10.03898438 -2.87089844 10.82015625 -3.3125 11.625 C-3.72951172 12.41390625 -4.14652344 13.2028125 -4.57617188 14.015625 C-7.72588735 19.86294367 -7.72588735 19.86294367 -10 21 C-9.01 18.03 -8.02 15.06 -7 12 C-6.34 12 -5.68 12 -5 12 C-4.67 9.36 -4.34 6.72 -4 4 C-3.01 4 -2.02 4 -1 4 C-0.67 2.68 -0.34 1.36 0 0 Z" transform="translate(196,133)"/><path fill="#104DE3" d="M0 0 C-1.65802755 2.21070341 -2.69814192 3.55817681 -5 5 C-8.37425965 5.43788102 -11.61677147 5.29562191 -15 5 C-11.11932678 1.11932678 -5.4348024 -0.50951273 0 0 Z" transform="translate(72,0)"/><path fill="#184EE0" d="M0 0 C2.49361571 1.20381448 4.68143083 2.45428722 7 4 C7 3.34 7 2.68 7 2 C8.9375 2.3125 8.9375 2.3125 11 3 C11.33 3.99 11.66 4.98 12 6 C11.34 6 10.68 6 10 6 C10.99 7.65 11.98 9.3 13 11 C9.54691313 9.48729451 7.04375621 7.45279358 4.25 4.9375 C3.45078125 4.22464844 2.6515625 3.51179687 1.828125 2.77734375 C1.22484375 2.19082031 0.6215625 1.60429687 0 1 C0 0.67 0 0.34 0 0 Z" transform="translate(27,166)"/><path fill="#1F4ECA" d="M0 0 C0.33 0 0.66 0 1 0 C1.29785422 5.6666765 0.31081409 10.08825729 -1.5 15.4375 C-1.73847656 16.16904297 -1.97695312 16.90058594 -2.22265625 17.65429688 C-2.80596172 19.4392116 -3.40169935 21.22005557 -4 23 C-5.95610721 17.13167836 -3.36638521 10.52156548 -1 5 C-0.63128912 3.34080104 -0.28718326 1.6752357 0 0 Z" transform="translate(202,110)"/><path fill="#1F4FD4" d="M0 0 C0.99 0 1.98 0 3 0 C4.33333333 6 5.66666667 12 7 18 C4.50752478 14.97903433 3.12043668 12.12076995 1.8125 8.4375 C1.46832031 7.48746094 1.12414062 6.53742188 0.76953125 5.55859375 C0 3 0 3 0 0 Z" transform="translate(3,122)"/><path fill="#124DD3" d="M0 0 C-1.60387267 1.1254191 -3.20810916 2.25031972 -4.8125 3.375 C-5.70582031 4.00148438 -6.59914063 4.62796875 -7.51953125 5.2734375 C-9.33267878 6.53550239 -11.16188211 7.77458808 -13 9 C-13.33 8.01 -13.66 7.02 -14 6 C-13.01 6 -12.02 6 -11 6 C-10.67 4.68 -10.34 3.36 -10 2 C-9.34 2 -8.68 2 -8 2 C-7.67 1.34 -7.34 0.68 -7 0 C-2.52459016 -1.26229508 -2.52459016 -1.26229508 0 0 Z" transform="translate(67,35)"/><path fill="#154CDC" d="M0 0 C3.89006773 1.38780795 6.96558708 3.2152227 10.3125 5.625 C11.19550781 6.25664062 12.07851562 6.88828125 12.98828125 7.5390625 C13.65214844 8.02117188 14.31601563 8.50328125 15 9 C12 10 12 10 9 9 C8.34 8.01 7.68 7.02 7 6 C6.01 5.67 5.02 5.34 4 5 C4 4.34 4 3.68 4 3 C3.01 3 2.02 3 1 3 C0.67 2.01 0.34 1.02 0 0 Z" transform="translate(152,8)"/><path fill="#1B51D7" d="M0 0 C0 4.79218001 -2.36540791 7.31897434 -5.5625 10.75 C-8 13 -8 13 -10 14 C-8.6113673 11.02245105 -6.98738657 8.48841335 -5 5.875 C-4.484375 5.19179688 -3.96875 4.50859375 -3.4375 3.8046875 C-2 2 -2 2 0 0 Z" transform="translate(26,28)"/><path fill="#194CD0" d="M0 0 C2.31 0 4.62 0 7 0 C4.47732009 1.68178661 2.18908177 2.90106742 -0.5625 4.125 C-1.34753906 4.47820313 -2.13257812 4.83140625 -2.94140625 5.1953125 C-5 6 -5 6 -7 6 C-7 5.01 -7 4.02 -7 3 C-3.535 2.505 -3.535 2.505 0 2 C0 1.34 0 0.68 0 0 Z" transform="translate(74,28)"/><path fill="#1851DB" d="M0 0 C0 0.66 0 1.32 0 2 C-0.99 2 -1.98 2 -3 2 C-3.66 3.65 -4.32 5.3 -5 7 C-7.31 7 -9.62 7 -12 7 C-10.67368911 4.34737821 -9.14656892 3.78900251 -6.5625 2.375 C-5.75941406 1.92898437 -4.95632812 1.48296875 -4.12890625 1.0234375 C-2 0 -2 0 0 0 Z" transform="translate(57,5)"/><path fill="#154ADA" d="M0 0 C-1.17578125 1.51953125 -1.17578125 1.51953125 -3 3 C-5.48046875 3.07421875 -5.48046875 3.07421875 -8.1875 2.6875 C-9.53908203 2.50767578 -9.53908203 2.50767578 -10.91796875 2.32421875 C-11.94857422 2.16373047 -11.94857422 2.16373047 -13 2 C-13 1.67 -13 1.34 -13 1 C-11.58622218 0.63447197 -10.16879424 0.28304505 -8.75 -0.0625 C-7.96109375 -0.25972656 -7.1721875 -0.45695313 -6.359375 -0.66015625 C-3.89605178 -1.01497267 -2.34395868 -0.76877544 0 0 Z" transform="translate(125,165)"/><path fill="#184FDA" d="M0 0 C1.32 0.33 2.64 0.66 4 1 C1.69 3.64 -0.62 6.28 -3 9 C-3 6.16032769 -2.59732819 3.76264289 -2 1 C-1.34 1 -0.68 1 0 1 C0 0.67 0 0.34 0 0 Z" transform="translate(181,156)"/><path fill="#1C50D4" d="M0 0 C1 2 1 2 0.375 4.4375 C-1.27706844 7.51635481 -2.91798591 8.45899296 -6 10 C-4.6302836 6.00499382 -2.74277578 3.19990508 0 0 Z" transform="translate(163,132)"/><path fill="#154AD1" d="M0 0 C-3.63 1.32 -7.26 2.64 -11 4 C-11 2.68 -11 1.36 -11 0 C-3.375 -1.125 -3.375 -1.125 0 0 Z" transform="translate(149,188)"/><path fill="#194CD6" d="M0 0 C0.99 0 1.98 0 3 0 C3.99 3.63 4.98 7.26 6 11 C3.05321567 8.05321567 1.67958081 5.75906182 0 2 C0 1.34 0 0.68 0 0 Z" transform="translate(10,140)"/><path fill="#154AD2" d="M0 0 C1.43861294 0.08746284 2.87597508 0.19565348 4.3125 0.3125 C5.11300781 0.37050781 5.91351563 0.42851562 6.73828125 0.48828125 C9.36272334 1.08206694 10.30820672 1.95780294 12 4 C7.6822542 3.49202991 3.96697886 2.80317221 0 1 C0 0.67 0 0.34 0 0 Z" transform="translate(55,187)"/><path fill="#FFF" transform="translate(0,0)"/><path fill="#FFF" transform="translate(0,0)"/><path fill="#FFF" transform="translate(0,0)"/><path fill="#FFF" transform="translate(0,0)"/><path fill="#FFF" transform="translate(0,0)"/><path fill="#FFF" transform="translate(0,0)"/><path fill="#FFF" transform="translate(0,0)"/><path fill="#FFF" transform="translate(0,0)"/><path fill="#FFF" transform="translate(0,0)"/><path fill="#FFF" transform="translate(0,0)"/><path fill="#FFF" transform="translate(0,0)"/><path fill="#FFF" transform="translate(0,0)"/><path fill="#FFF" transform="translate(0,0)"/><path fill="#FFF" transform="translate(0,0)"/><path fill="#FFF" transform="translate(0,0)"/><path fill="#FFF" transform="translate(0,0)"/><path fill="#FFF" transform="translate(0,0)"/><path fill="#FFF" transform="translate(0,0)"/><path fill="#FFF" transform="translate(0,0)"/><path fill="#FFF" transform="translate(0,0)"/><path fill="#0FF" transform="translate(0,0)"/><path fill="#FFF" transform="translate(0,0)"/><path fill="#FFF" transform="translate(0,0)"/><path fill="#FFF" transform="translate(0,0)"/><path fill="#FFF" transform="translate(0,0)"/><path fill="#FFF" transform="translate(0,0)"/><path fill="#FFF" transform="translate(0,0)"/><path fill="#FFF" transform="translate(0,0)"/><path fill="#FFF" transform="translate(0,0)"/><path fill="#FFF" transform="translate(0,0)"/><path fill="#FFF" transform="translate(0,0)"/><path fill="#FFF" transform="translate(0,0)"/><path fill="#FFF" transform="translate(0,0)"/><path fill="#FFF" transform="translate(0,0)"/><path fill="#FFF" transform="translate(0,0)"/><path fill="#FFF" transform="translate(0,0)"/><path fill="#FFF" transform="translate(0,0)"/><path fill="#FFF" transform="translate(0,0)"/><path fill="#FFF" transform="translate(0,0)"/><path fill="#FFF" transform="translate(0,0)"/></svg>