<svg xmlns="http://www.w3.org/2000/svg" xmlns:xlink="http://www.w3.org/1999/xlink" xmlns:xodm="http://www.corel.com/coreldraw/odm/2003" id="Layer_1" x="0" y="0" version="1.1" viewBox="0 0 2500 2500" style="enable-background:new 0 0 2500 2500" xml:space="preserve"><style type="text/css">.st1{fill:#fefeff}.st1,.st2,.st3{fill-rule:evenodd;clip-rule:evenodd}.st2{fill:#fdfeff}.st3{fill:#fcfdff}.st10{fill-rule:evenodd;clip-rule:evenodd}.st4{fill:#fbfcff}.st4,.st5,.st6,.st7,.st8,.st9{fill-rule:evenodd;clip-rule:evenodd}.st5{fill:#fafcff}.st6{fill:#f9fbff}.st7{fill:#f8faff}.st8{fill:#f7faff}.st9{fill:#f6f9ff}.st10{fill:#f5f8ff}.st11{fill:#f4f8ff}.st11,.st12,.st13,.st14,.st15,.st16{fill-rule:evenodd;clip-rule:evenodd}.st12{fill:#f3f7ff}.st13{fill:#f2f6ff}.st14{fill:#f1f6ff}.st15{fill:#f0f5ff}.st16{fill:#eff4ff}.st17{fill:#eef3ff}.st17,.st18,.st19,.st20,.st21,.st22{fill-rule:evenodd;clip-rule:evenodd}.st18{fill:#edf3ff}.st19{fill:#ecf2ff}.st20{fill:#ebf1ff}.st21{fill:#eaf1ff}.st22{fill:#e9f0ff}.st23{fill:#e8efff}.st23,.st24,.st25,.st26,.st27,.st28{fill-rule:evenodd;clip-rule:evenodd}.st24{fill:#e7efff}.st25{fill:#e6eeff}.st26{fill:#e5edff}.st27{fill:#e4edff}.st28{fill:#e3ecff}.st29{fill:#e2ebff}.st29,.st30,.st31,.st32,.st33,.st34{fill-rule:evenodd;clip-rule:evenodd}.st30{fill:#e1ebff}.st31{fill:#e0eaff}.st32{fill:#dfe9ff}.st33{fill:#dee9ff}.st34{fill:#dde8ff}.st35{fill:#dce7ff}.st35,.st36,.st37,.st38,.st39,.st40{fill-rule:evenodd;clip-rule:evenodd}.st36{fill:#dbe7ff}.st37{fill:#dae6ff}.st38{fill:#d9e5ff}.st39{fill:#d8e5ff}.st40{fill:#d7e4ff}.st41{fill:#d6e3ff}.st41,.st42,.st43,.st44,.st45,.st46{fill-rule:evenodd;clip-rule:evenodd}.st42{fill:#d5e3ff}.st43{fill:#d4e2ff}.st44{fill:#d3e1ff}.st45{fill:#d2e0ff}.st46{fill:#d1e0ff}.st47{fill:#d0dfff}.st47,.st48,.st49,.st50,.st51,.st52{fill-rule:evenodd;clip-rule:evenodd}.st48{fill:#cfdeff}.st49{fill:#cedeff}.st50{fill:#cdddff}.st51{fill:#ccdcff}.st52{fill:#cbdcff}.st53{fill:#cadbff}.st53,.st54,.st55,.st56,.st57,.st58{fill-rule:evenodd;clip-rule:evenodd}.st54{fill:#c9daff}.st55{fill:#c8daff}.st56{fill:#c7d9ff}.st57{fill:#c6d8ff}.st58{fill:#c5d8ff}.st59{fill:#c4d7ff}.st59,.st60,.st61,.st62,.st63,.st64{fill-rule:evenodd;clip-rule:evenodd}.st60{fill:#c3d6ff}.st61{fill:#c2d6ff}.st62{fill:#c1d5ff}.st63{fill:#c0d4ff}.st64{fill:#bfd4ff}.st65{fill:#bed3ff}.st65,.st66,.st67,.st68,.st69,.st70{fill-rule:evenodd;clip-rule:evenodd}.st66{fill:#bdd2ff}.st67{fill:#bcd2ff}.st68{fill:#bbd1ff}.st69{fill:#bad0ff}.st70{fill:#b9d0ff}.st71{fill:#b8cfff}.st71,.st72,.st73,.st74,.st75,.st76{fill-rule:evenodd;clip-rule:evenodd}.st72{fill:#b7ceff}.st73{fill:#b6cdff}.st74{fill:#b5cdff}.st75{fill:#b4ccff}.st76{fill:#b3cbff}.st77{fill:#b2cbff}.st77,.st78,.st79,.st80,.st81,.st82{fill-rule:evenodd;clip-rule:evenodd}.st78{fill:#b1caff}.st79{fill:#b0c9ff}.st80{fill:#afc9ff}.st81{fill:#aec8ff}.st82{fill:#adc7ff}.st83{fill:#acc7ff}.st83,.st84,.st85,.st86,.st87,.st88{fill-rule:evenodd;clip-rule:evenodd}.st84{fill:#abc6ff}.st85{fill:#aac5ff}.st86{fill:#a9c5ff}.st87{fill:#a8c4ff}.st88{fill:#a7c3ff}.st89{fill:#a6c3ff}.st89,.st90,.st91,.st92,.st93,.st94{fill-rule:evenodd;clip-rule:evenodd}.st90{fill:#a5c2ff}.st91{fill:#a4c1ff}.st92{fill:#a3c1ff}.st93{fill:#a2c0ff}.st94{fill:#a1bfff}.st100{fill-rule:evenodd;clip-rule:evenodd}.st95{fill:#a0bfff}.st95,.st96,.st97,.st98,.st99{fill-rule:evenodd;clip-rule:evenodd}.st96{fill:#9fbeff}.st97{fill:#9ebdff}.st98{fill:#9dbdff}.st99{fill:#9cbcff}.st100{fill:#9bbbff}.st101{fill:#9abaff}.st101,.st102,.st103,.st104,.st105,.st106{fill-rule:evenodd;clip-rule:evenodd}.st102{fill:#99baff}.st103{fill:#98b9ff}.st104{fill:#97b8ff}.st105{fill:#96b8ff}.st106{fill:#95b7ff}.st107{fill:#94b6ff}.st107,.st108,.st109,.st110,.st111,.st112{fill-rule:evenodd;clip-rule:evenodd}.st108{fill:#93b6ff}.st109{fill:#92b5ff}.st110{fill:#91b4ff}.st111{fill:#90b4ff}.st112{fill:#8fb3ff}.st113{fill:#8eb2ff}.st113,.st114,.st115,.st116,.st117,.st118{fill-rule:evenodd;clip-rule:evenodd}.st114{fill:#8db2ff}.st115{fill:#8cb1ff}.st116{fill:#8bb0ff}.st117{fill:#8ab0ff}.st118{fill:#89afff}.st119{fill:#88aeff}.st119,.st120,.st121,.st122,.st123,.st124{fill-rule:evenodd;clip-rule:evenodd}.st120{fill:#87aeff}.st121{fill:#86adff}.st122{fill:#85acff}.st123{fill:#84acff}.st124{fill:#83abff}.st125{fill:#82aaff}.st125,.st126,.st127,.st128,.st129,.st130{fill-rule:evenodd;clip-rule:evenodd}.st126{fill:#81aaff}.st127{fill:#80a9ff}.st128{fill:#7fa8ff}.st129{fill:#7ea7ff}.st130{fill:#7da7ff}.st131{fill:#7ca6ff}.st131,.st132,.st133,.st134,.st135,.st136{fill-rule:evenodd;clip-rule:evenodd}.st132{fill:#7ba5ff}.st133{fill:#7aa5ff}.st134{fill:#79a4ff}.st135{fill:#78a3ff}.st136{fill:#77a3ff}.st137{fill:#76a2ff}.st137,.st138,.st139,.st140,.st141,.st142{fill-rule:evenodd;clip-rule:evenodd}.st138{fill:#75a1ff}.st139{fill:#74a1ff}.st140{fill:#73a0ff}.st141{fill:#729fff}.st142{fill:#719fff}.st143{fill:#709eff}.st143,.st144,.st145,.st146,.st147,.st148{fill-rule:evenodd;clip-rule:evenodd}.st144{fill:#6f9dff}.st145{fill:#6e9dff}.st146{fill:#6d9cff}.st147{fill:#6c9bff}.st148{fill:#6b9bff}.st149{fill:#6a9aff}.st149,.st150,.st151,.st152,.st153,.st154{fill-rule:evenodd;clip-rule:evenodd}.st150{fill:#6999ff}.st151{fill:#6899ff}.st152{fill:#6798ff}.st153{fill:#6697ff}.st154{fill:#6597ff}.st155{fill:#6496ff}.st155,.st156,.st157,.st158,.st159,.st160{fill-rule:evenodd;clip-rule:evenodd}.st156{fill:#6395ff}.st157{fill:#6294ff}.st158{fill:#6194ff}.st159{fill:#6093ff}.st160{fill:#5f92ff}.st161{fill:#5e92ff}.st161,.st162,.st163,.st164,.st165,.st166{fill-rule:evenodd;clip-rule:evenodd}.st162{fill:#5d91ff}.st163{fill:#5c90ff}.st164{fill:#5b90ff}.st165{fill:#5a8fff}.st166{fill:#598eff}.st167{fill:#588eff}.st167,.st168,.st169,.st170,.st171,.st172{fill-rule:evenodd;clip-rule:evenodd}.st168{fill:#578dff}.st169{fill:#568cff}.st170{fill:#558cff}.st171{fill:#548bff}.st172{fill:#538aff}.st173{fill:#528aff}.st173,.st174,.st175,.st176,.st177,.st178{fill-rule:evenodd;clip-rule:evenodd}.st174{fill:#5189ff}.st175{fill:#5088ff}.st176{fill:#4f88ff}.st177{fill:#4e87ff}.st178{fill:#4d86ff}.st179{fill:#4c86ff}.st179,.st180,.st181,.st182,.st183,.st184{fill-rule:evenodd;clip-rule:evenodd}.st180{fill:#4b85ff}.st181{fill:#4a84ff}.st182{fill:#4984ff}.st183{fill:#4883ff}.st184{fill:#4782ff}.st185{fill:#4681ff}.st185,.st186,.st187,.st188,.st189,.st190{fill-rule:evenodd;clip-rule:evenodd}.st186{fill:#4581ff}.st187{fill:#4480ff}.st188{fill:#437fff}.st189{fill:#427fff}.st190{fill:#417eff}.st191{fill:#407dff}.st191,.st192,.st193,.st194,.st195,.st196{fill-rule:evenodd;clip-rule:evenodd}.st192{fill:#3f7dff}.st193{fill:#3e7cff}.st194{fill:#3d7bff}.st195{fill:#3c7bff}.st196{fill:#3b7aff}.st197{fill:#3a79ff}.st197,.st198,.st199,.st200,.st201,.st202{fill-rule:evenodd;clip-rule:evenodd}.st198{fill:#3979ff}.st199{fill:#3878ff}.st200{fill:#3777ff}.st201{fill:#3677ff}.st202{fill:#3576ff}.st203{fill:#3475ff}.st203,.st204,.st205,.st206,.st207,.st208{fill-rule:evenodd;clip-rule:evenodd}.st204{fill:#3375ff}.st205{fill:#3274ff}.st206{fill:#3173ff}.st207{fill:#3073ff}.st208{fill:#2f72ff}.st209{fill:#2e71ff}.st209,.st210,.st211,.st212,.st213,.st214{fill-rule:evenodd;clip-rule:evenodd}.st210{fill:#2d71ff}.st211{fill:#2c70ff}.st212{fill:#2b6fff}.st213{fill:#2a6eff}.st214{fill:#296eff}.st215{fill:#286dff}.st215,.st216,.st217,.st218,.st219,.st220{fill-rule:evenodd;clip-rule:evenodd}.st216{fill:#276cff}.st217{fill:#266cff}.st218{fill:#256bff}.st219{fill:#246aff}.st220{fill:#236aff}.st221{fill:#2269ff}.st221,.st222,.st223,.st224,.st225,.st226{fill-rule:evenodd;clip-rule:evenodd}.st222{fill:#2168ff}.st223{fill:#2068ff}.st224{fill:#1f67ff}.st225{fill:#1e66ff}.st226{fill:#1d66ff}.st227{fill:#1c65ff}.st227,.st228,.st229,.st230,.st231,.st232{fill-rule:evenodd;clip-rule:evenodd}.st228{fill:#1b64ff}.st229{fill:#1a64ff}.st230{fill:#1963ff}.st231{fill:#1862ff}.st232{fill:#1762ff}.st233{fill:#1661ff}.st233,.st234,.st235,.st236,.st237,.st238{fill-rule:evenodd;clip-rule:evenodd}.st234{fill:#1560ff}.st235{fill:#1460ff}.st236{fill:#135fff}.st237{fill:#125eff}.st238{fill:#115eff}.st239{fill:#105dff}.st239,.st240,.st241,.st242,.st243,.st244{fill-rule:evenodd;clip-rule:evenodd}.st240{fill:#0f5cff}.st241{fill:#0e5bff}.st242{fill:#0d5bff}.st243{fill:#0c5aff}.st244{fill:#0b59ff}.st245{fill:#0a59ff}.st245,.st246,.st247,.st248,.st249,.st250{fill-rule:evenodd;clip-rule:evenodd}.st246{fill:#0958ff}.st247{fill:#0857ff}.st248{fill:#0757ff}.st249{fill:#0656ff}.st250{fill:#0555ff}.st251{fill:#0455ff}.st251,.st252,.st253,.st254,.st255,.st256{fill-rule:evenodd;clip-rule:evenodd}.st252{fill:#0354ff}.st253{fill:#0253ff}.st254{fill:#0153ff}.st255{fill:#0052ff}.st256{fill:#fff}</style><g id="Layer_x0020_1"><g><g><defs><path id="SVGID_1_" d="M1250,2500C559.6,2500,0,1940.4,0,1250C0,559.6,559.6,0,1250,0c690.4,0,1250,559.6,1250,1250 C2500,1940.4,1940.4,2500,1250,2500z"/></defs><clipPath id="SVGID_00000137130877621503601290000017679510272143242652_"><use xlink:href="#SVGID_1_" style="overflow:visible"/></clipPath><g style="clip-path:url(#SVGID_00000137130877621503601290000017679510272143242652_)"><polygon points="1250 1250 -518 1239.1 -516.4 1174.1" class="st1"/><polygon id="_1" points="1250 1250 -516.7 1184.9 -514 1130.7" class="st2"/><polygon id="_2" points="1250 1250 -514.6 1141.6 -510.6 1087.5" class="st3"/><polygon id="_3" points="1250 1250 -511.4 1098.3 -506.1 1044.3" class="st4"/><polygon id="_4" points="1250 1250 -507.1 1055.1 -500.5 1001.3" class="st5"/><polygon id="_5" points="1250 1250 -501.8 1012.1 -493.9 958.4" class="st6"/><polygon id="_6" points="1250 1250 -495.4 969.1 -486.2 915.7" class="st7"/><polygon id="_7" points="1250 1250 -488 926.4 -477.5 873.2" class="st8"/><polygon id="_8" points="1250 1250 -479.6 883.9 -467.7 830.9" class="st9"/><polygon id="_9" points="1250 1250 -470.1 841.5 -456.9 788.9" class="st10"/><polygon id="_10" points="1250 1250 -459.5 799.4 -445.1 747.1" class="st11"/><polygon id="_11" points="1250 1250 -448 757.6 -432.2 705.7" class="st12"/><polygon id="_12" points="1250 1250 -435.4 716.1 -418.3 664.6" class="st13"/><polygon id="_13" points="1250 1250 -421.8 674.9 -403.5 623.8" class="st14"/><polygon id="_14" points="1250 1250 -407.1 634 -387.6 583.4" class="st15"/><polygon id="_15" points="1250 1250 -391.5 593.5 -370.8 543.4" class="st16"/><polygon id="_16" points="1250 1250 -374.9 553.4 -352.9 503.9" class="st17"/><polygon id="_17" points="1250 1250 -357.3 513.8 -334.1 464.8" class="st18"/><polygon id="_18" points="1250 1250 -338.8 474.6 -314.4 426.1" class="st19"/><polygon id="_19" points="1250 1250 -319.3 435.8 -293.7 388" class="st20"/><polygon id="_20" points="1250 1250 -298.8 397.6 -272.1 350.3" class="st21"/><polygon id="_21" points="1250 1250 -277.4 359.8 -249.5 313.3" class="st22"/><polygon id="_22" points="1250 1250 -255.1 322.6 -226.1 276.7" class="st23"/><polygon id="_23" points="1250 1250 -231.9 285.9 -201.7 240.8" class="st24"/><polygon id="_24" points="1250 1250 -207.8 249.8 -176.6 205.5" class="st25"/><polygon id="_25" points="1250 1250 -182.8 214.4 -150.5 170.8" class="st26"/><polygon id="_26" points="1250 1250 -157 179.5 -123.6 136.7" class="st27"/><polygon id="_27" points="1250 1250 -130.3 145.3 -95.9 103.4" class="st28"/><polygon id="_28" points="1250 1250 -102.7 111.8 -67.3 70.7" class="st29"/><polygon id="_29" points="1250 1250 -74.4 78.9 -38 38.7" class="st30"/><polygon id="_30" points="1250 1250 -45.3 46.8 -7.9 7.5" class="st31"/><polygon id="_31" points="1250 1250 -15.4 15.4 23 -23" class="st32"/><polygon id="_32" points="1250 1250 15.4 -15.4 54.6 -52.7" class="st33"/><polygon id="_33" points="1250 1250 46.8 -45.3 87 -81.7" class="st34"/><polygon id="_34" points="1250 1250 78.9 -74.4 120 -109.8" class="st35"/><polygon id="_35" points="1250 1250 111.8 -102.7 153.7 -137.1" class="st36"/><polygon id="_36" points="1250 1250 145.3 -130.3 188.1 -163.6" class="st37"/><polygon id="_37" points="1250 1250 179.5 -157 223.1 -189.3" class="st38"/><polygon id="_38" points="1250 1250 214.4 -182.8 258.7 -214" class="st39"/><polygon id="_39" points="1250 1250 249.8 -207.8 294.9 -237.9" class="st40"/><polygon id="_40" points="1250 1250 285.9 -231.9 331.8 -260.9" class="st41"/><polygon id="_41" points="1250 1250 322.6 -255.1 369.1 -283" class="st42"/><polygon id="_42" points="1250 1250 359.8 -277.4 407 -304.1" class="st43"/><polygon id="_43" points="1250 1250 397.6 -298.8 445.4 -324.4" class="st44"/><polygon id="_44" points="1250 1250 435.8 -319.3 484.3 -343.6" class="st45"/><polygon id="_45" points="1250 1250 474.6 -338.8 523.6 -361.9" class="st46"/><polygon id="_46" points="1250 1250 513.8 -357.3 563.4 -379.3" class="st47"/><polygon id="_47" points="1250 1250 553.4 -374.9 603.6 -395.7" class="st48"/><polygon id="_48" points="1250 1250 593.5 -391.5 644.2 -411" class="st49"/><polygon id="_49" points="1250 1250 634 -407.1 685.1 -425.4" class="st50"/><polygon id="_50" points="1250 1250 674.9 -421.8 726.4 -438.7" class="st51"/><polygon id="_51" points="1250 1250 716.1 -435.4 768 -451.1" class="st52"/><polygon id="_52" points="1250 1250 757.6 -448 809.9 -462.4" class="st53"/><polygon id="_53" points="1250 1250 799.4 -459.5 852 -472.7" class="st54"/><polygon id="_54" points="1250 1250 841.5 -470.1 894.4 -481.9" class="st55"/><polygon id="_55" points="1250 1250 883.9 -479.6 937 -490.1" class="st56"/><polygon id="_56" points="1250 1250 926.4 -488 979.8 -497.3" class="st57"/><polygon id="_57" points="1250 1250 969.1 -495.4 1022.8 -503.4" class="st58"/><polygon id="_58" points="1250 1250 1012.1 -501.8 1065.9 -508.4" class="st59"/><polygon id="_59" points="1250 1250 1055.1 -507.1 1109.1 -512.4" class="st60"/><polygon id="_60" points="1250 1250 1098.3 -511.4 1152.4 -515.4" class="st61"/><polygon id="_61" points="1250 1250 1141.6 -514.6 1195.8 -517.2" class="st62"/><polygon id="_62" points="1250 1250 1184.9 -516.7 1239.1 -518" class="st63"/><polygon id="_63" points="1250 1250 1228.3 -517.8 1282.5 -517.8" class="st64"/><polygon id="_64" points="1250 1250 1271.7 -517.8 1325.9 -516.4" class="st65"/><polygon id="_65" points="1250 1250 1315.1 -516.7 1369.2 -514" class="st66"/><polygon id="_66" points="1250 1250 1358.4 -514.6 1412.5 -510.6" class="st67"/><polygon id="_67" points="1250 1250 1401.7 -511.4 1455.7 -506.1" class="st68"/><polygon id="_68" points="1250 1250 1444.8 -507.1 1498.7 -500.5" class="st69"/><polygon id="_69" points="1250 1250 1487.9 -501.8 1541.6 -493.9" class="st70"/><polygon id="_70" points="1250 1250 1530.8 -495.4 1584.3 -486.2" class="st71"/><polygon id="_71" points="1250 1250 1573.6 -488 1626.8 -477.5" class="st72"/><polygon id="_72" points="1250 1250 1616.1 -479.6 1669.1 -467.7" class="st73"/><polygon id="_73" points="1250 1250 1658.5 -470.1 1711.1 -456.9" class="st74"/><polygon id="_74" points="1250 1250 1700.6 -459.5 1752.8 -445.1" class="st75"/><polygon id="_75" points="1250 1250 1742.4 -448 1794.3 -432.2" class="st76"/><polygon id="_76" points="1250 1250 1783.9 -435.4 1835.4 -418.3" class="st77"/><polygon id="_77" points="1250 1250 1825.1 -421.8 1876.2 -403.5" class="st78"/><polygon id="_78" points="1250 1250 1866 -407.1 1916.6 -387.6" class="st79"/><polygon id="_79" points="1250 1250 1906.4 -391.5 1956.6 -370.8" class="st80"/><polygon id="_80" points="1250 1250 1946.5 -374.9 1996.1 -352.9" class="st81"/><polygon id="_81" points="1250 1250 1986.2 -357.3 2035.2 -334.1" class="st82"/><polygon id="_82" points="1250 1250 2025.4 -338.8 2073.9 -314.4" class="st83"/><polygon id="_83" points="1250 1250 2064.2 -319.3 2112 -293.7" class="st84"/><polygon id="_84" points="1250 1250 2102.4 -298.8 2149.7 -272.1" class="st85"/><polygon id="_85" points="1250 1250 2140.2 -277.4 2186.7 -249.5" class="st86"/><polygon id="_86" points="1250 1250 2177.4 -255.1 2223.2 -226.1" class="st87"/><polygon id="_87" points="1250 1250 2214.1 -231.9 2259.2 -201.7" class="st88"/><polygon id="_88" points="1250 1250 2250.2 -207.8 2294.5 -176.6" class="st89"/><polygon id="_89" points="1250 1250 2285.6 -182.8 2329.2 -150.5" class="st90"/><polygon id="_90" points="1250 1250 2320.5 -157 2363.2 -123.6" class="st91"/><polygon id="_91" points="1250 1250 2354.7 -130.3 2396.6 -95.9" class="st92"/><polygon id="_92" points="1250 1250 2388.2 -102.7 2429.3 -67.3" class="st93"/><polygon id="_93" points="1250 1250 2421.1 -74.4 2461.3 -38" class="st94"/><polygon id="_94" points="1250 1250 2453.2 -45.3 2492.5 -7.9" class="st95"/><polygon id="_95" points="1250 1250 2484.6 -15.4 2523 23" class="st96"/><polygon id="_96" points="1250 1250 2515.3 15.4 2552.7 54.6" class="st97"/><polygon id="_97" points="1250 1250 2545.3 46.8 2581.7 87" class="st98"/><polygon id="_98" points="1250 1250 2574.4 78.9 2609.8 120" class="st99"/><polygon id="_99" points="1250 1250 2602.7 111.8 2637.1 153.7" class="st100"/><polygon id="_100" points="1250 1250 2630.3 145.3 2663.6 188.1" class="st101"/><polygon id="_101" points="1250 1250 2657 179.5 2689.3 223.1" class="st102"/><polygon id="_102" points="1250 1250 2682.8 214.4 2714 258.7" class="st103"/><polygon id="_103" points="1250 1250 2707.8 249.8 2737.9 294.9" class="st104"/><polygon id="_104" points="1250 1250 2731.9 285.9 2760.9 331.8" class="st105"/><polygon id="_105" points="1250 1250 2755.1 322.6 2783 369.1" class="st106"/><polygon id="_106" points="1250 1250 2777.4 359.8 2804.1 407" class="st107"/><polygon id="_107" points="1250 1250 2798.8 397.6 2824.3 445.4" class="st108"/><polygon id="_108" points="1250 1250 2819.2 435.8 2843.6 484.3" class="st109"/><polygon id="_109" points="1250 1250 2838.8 474.6 2861.9 523.6" class="st110"/><polygon id="_110" points="1250 1250 2857.3 513.8 2879.3 563.4" class="st111"/><polygon id="_111" points="1250 1250 2874.9 553.4 2895.6 603.6" class="st112"/><polygon id="_112" points="1250 1250 2891.5 593.5 2911 644.2" class="st113"/><polygon id="_113" points="1250 1250 2907.1 634 2925.4 685.1" class="st114"/><polygon id="_114" points="1250 1250 2921.7 674.9 2938.7 726.4" class="st115"/><polygon id="_115" points="1250 1250 2935.3 716.1 2951.1 768" class="st116"/><polygon id="_116" points="1250 1250 2947.9 757.6 2962.4 809.9" class="st117"/><polygon id="_117" points="1250 1250 2959.5 799.4 2972.7 852" class="st118"/><polygon id="_118" points="1250 1250 2970.1 841.5 2981.9 894.4" class="st119"/><polygon id="_119" points="1250 1250 2979.5 883.9 2990.1 937" class="st120"/><polygon id="_120" points="1250 1250 2988 926.4 2997.3 979.8" class="st121"/><polygon id="_121" points="1250 1250 2995.4 969.1 3003.4 1022.8" class="st122"/><polygon id="_122" points="1250 1250 3001.8 1012.1 3008.4 1065.9" class="st123"/><polygon id="_123" points="1250 1250 3007.1 1055.1 3012.4 1109.1" class="st124"/><polygon id="_124" points="1250 1250 3011.4 1098.3 3015.4 1152.4" class="st125"/><polygon id="_125" points="1250 1250 3014.6 1141.6 3017.2 1195.8" class="st126"/><polygon id="_126" points="1250 1250 3016.7 1184.9 3018 1239.1" class="st127"/><polygon id="_127" points="1250 1250 3017.7 1228.3 3017.7 1282.5" class="st128"/><polygon id="_128" points="1250 1250 3017.7 1271.7 3016.4 1325.9" class="st129"/><polygon id="_129" points="1250 1250 3016.7 1315.1 3014 1369.2" class="st130"/><polygon id="_130" points="1250 1250 3014.6 1358.4 3010.6 1412.5" class="st131"/><polygon id="_131" points="1250 1250 3011.4 1401.7 3006.1 1455.7" class="st132"/><polygon id="_132" points="1250 1250 3007.1 1444.8 3000.5 1498.7" class="st133"/><polygon id="_133" points="1250 1250 3001.8 1487.9 2993.8 1541.6" class="st134"/><polygon id="_134" points="1250 1250 2995.4 1530.8 2986.2 1584.3" class="st135"/><polygon id="_135" points="1250 1250 2988 1573.6 2977.4 1626.8" class="st136"/><polygon id="_136" points="1250 1250 2979.5 1616.1 2967.7 1669.1" class="st137"/><polygon id="_137" points="1250 1250 2970.1 1658.5 2956.9 1711.1" class="st138"/><polygon id="_138" points="1250 1250 2959.5 1700.6 2945.1 1752.8" class="st139"/><polygon id="_139" points="1250 1250 2947.9 1742.4 2932.2 1794.3" class="st140"/><polygon id="_140" points="1250 1250 2935.3 1783.9 2918.3 1835.4" class="st141"/><polygon id="_141" points="1250 1250 2921.7 1825.1 2903.5 1876.2" class="st142"/><polygon id="_142" points="1250 1250 2907.1 1866 2887.6 1916.6" class="st143"/><polygon id="_143" points="1250 1250 2891.5 1906.4 2870.7 1956.6" class="st144"/><polygon id="_144" points="1250 1250 2874.9 1946.5 2852.9 1996.1" class="st145"/><polygon id="_145" points="1250 1250 2857.3 1986.2 2834.1 2035.2" class="st146"/><polygon id="_146" points="1250 1250 2838.8 2025.4 2814.4 2073.9" class="st147"/><polygon id="_147" points="1250 1250 2819.2 2064.2 2793.7 2112" class="st148"/><polygon id="_148" points="1250 1250 2798.8 2102.4 2772.1 2149.7" class="st149"/><polygon id="_149" points="1250 1250 2777.4 2140.2 2749.5 2186.7" class="st150"/><polygon id="_150" points="1250 1250 2755.1 2177.4 2726.1 2223.2" class="st151"/><polygon id="_151" points="1250 1250 2731.9 2214.1 2701.7 2259.2" class="st152"/><polygon id="_152" points="1250 1250 2707.8 2250.2 2676.6 2294.5" class="st153"/><polygon id="_153" points="1250 1250 2682.8 2285.6 2650.5 2329.2" class="st154"/><polygon id="_154" points="1250 1250 2657 2320.5 2623.6 2363.2" class="st155"/><polygon id="_155" points="1250 1250 2630.3 2354.7 2595.9 2396.6" class="st156"/><polygon id="_156" points="1250 1250 2602.7 2388.2 2567.3 2429.3" class="st157"/><polygon id="_157" points="1250 1250 2574.4 2421.1 2538 2461.3" class="st158"/><polygon id="_158" points="1250 1250 2545.3 2453.2 2507.9 2492.5" class="st159"/><polygon id="_159" points="1250 1250 2515.3 2484.6 2477 2523" class="st160"/><polygon id="_160" points="1250 1250 2484.6 2515.3 2445.4 2552.7" class="st161"/><polygon id="_161" points="1250 1250 2453.2 2545.3 2413 2581.7" class="st162"/><polygon id="_162" points="1250 1250 2421.1 2574.4 2380 2609.8" class="st163"/><polygon id="_163" points="1250 1250 2388.2 2602.7 2346.3 2637.1" class="st164"/><polygon id="_164" points="1250 1250 2354.7 2630.3 2311.9 2663.6" class="st165"/><polygon id="_165" points="1250 1250 2320.5 2657 2276.9 2689.3" class="st166"/><polygon id="_166" points="1250 1250 2285.6 2682.8 2241.3 2714" class="st167"/><polygon id="_167" points="1250 1250 2250.2 2707.8 2205 2737.9" class="st168"/><polygon id="_168" points="1250 1250 2214.1 2731.9 2168.2 2760.9" class="st169"/><polygon id="_169" points="1250 1250 2177.4 2755.1 2130.9 2783" class="st170"/><polygon id="_170" points="1250 1250 2140.2 2777.4 2093 2804.1" class="st171"/><polygon id="_171" points="1250 1250 2102.4 2798.8 2054.6 2824.3" class="st172"/><polygon id="_172" points="1250 1250 2064.2 2819.2 2015.7 2843.6" class="st173"/><polygon id="_173" points="1250 1250 2025.4 2838.8 1976.4 2861.9" class="st174"/><polygon id="_174" points="1250 1250 1986.2 2857.3 1936.6 2879.3" class="st175"/><polygon id="_175" points="1250 1250 1946.5 2874.9 1896.4 2895.6" class="st176"/><polygon id="_176" points="1250 1250 1906.4 2891.5 1855.8 2911" class="st177"/><polygon id="_177" points="1250 1250 1866 2907.1 1814.9 2925.4" class="st178"/><polygon id="_178" points="1250 1250 1825.1 2921.7 1773.6 2938.7" class="st179"/><polygon id="_179" points="1250 1250 1783.9 2935.3 1732 2951.1" class="st180"/><polygon id="_180" points="1250 1250 1742.4 2947.9 1690.1 2962.4" class="st181"/><polygon id="_181" points="1250 1250 1700.6 2959.5 1647.9 2972.7" class="st182"/><polygon id="_182" points="1250 1250 1658.5 2970.1 1605.6 2981.9" class="st183"/><polygon id="_183" points="1250 1250 1616.1 2979.5 1562.9 2990.1" class="st184"/><polygon id="_184" points="1250 1250 1573.6 2988 1520.2 2997.3" class="st185"/><polygon id="_185" points="1250 1250 1530.8 2995.4 1477.2 3003.4" class="st186"/><polygon id="_186" points="1250 1250 1487.9 3001.8 1434.1 3008.4" class="st187"/><polygon id="_187" points="1250 1250 1444.8 3007.1 1390.9 3012.4" class="st188"/><polygon id="_188" points="1250 1250 1401.7 3011.4 1347.6 3015.4" class="st189"/><polygon id="_189" points="1250 1250 1358.4 3014.6 1304.2 3017.2" class="st190"/><polygon id="_190" points="1250 1250 1315.1 3016.7 1260.8 3018" class="st191"/><polygon id="_191" points="1250 1250 1271.7 3017.7 1217.4 3017.7" class="st192"/><polygon id="_192" points="1250 1250 1228.3 3017.7 1174.1 3016.4" class="st193"/><polygon id="_193" points="1250 1250 1184.9 3016.7 1130.7 3014" class="st194"/><polygon id="_194" points="1250 1250 1141.6 3014.6 1087.5 3010.6" class="st195"/><polygon id="_195" points="1250 1250 1098.3 3011.4 1044.3 3006.1" class="st196"/><polygon id="_196" points="1250 1250 1055.1 3007.1 1001.3 3000.5" class="st197"/><polygon id="_197" points="1250 1250 1012.1 3001.8 958.4 2993.8" class="st198"/><polygon id="_198" points="1250 1250 969.1 2995.4 915.7 2986.2" class="st199"/><polygon id="_199" points="1250 1250 926.4 2988 873.2 2977.4" class="st200"/><polygon id="_200" points="1250 1250 883.9 2979.5 830.9 2967.7" class="st201"/><polygon id="_201" points="1250 1250 841.5 2970.1 788.9 2956.9" class="st202"/><polygon id="_202" points="1250 1250 799.4 2959.5 747.1 2945.1" class="st203"/><polygon id="_203" points="1250 1250 757.6 2947.9 705.7 2932.2" class="st204"/><polygon id="_204" points="1250 1250 716.1 2935.3 664.6 2918.3" class="st205"/><polygon id="_205" points="1250 1250 674.9 2921.7 623.8 2903.5" class="st206"/><polygon id="_206" points="1250 1250 634 2907.1 583.4 2887.6" class="st207"/><polygon id="_207" points="1250 1250 593.5 2891.5 543.4 2870.7" class="st208"/><polygon id="_208" points="1250 1250 553.4 2874.9 503.9 2852.9" class="st209"/><polygon id="_209" points="1250 1250 513.8 2857.3 464.8 2834.1" class="st210"/><polygon id="_210" points="1250 1250 474.6 2838.8 426.1 2814.4" class="st211"/><polygon id="_211" points="1250 1250 435.8 2819.2 388 2793.7" class="st212"/><polygon id="_212" points="1250 1250 397.6 2798.8 350.3 2772.1" class="st213"/><polygon id="_213" points="1250 1250 359.8 2777.4 313.3 2749.5" class="st214"/><polygon id="_214" points="1250 1250 322.6 2755.1 276.7 2726.1" class="st215"/><polygon id="_215" points="1250 1250 285.9 2731.9 240.8 2701.7" class="st216"/><polygon id="_216" points="1250 1250 249.8 2707.8 205.5 2676.6" class="st217"/><polygon id="_217" points="1250 1250 214.4 2682.8 170.8 2650.5" class="st218"/><polygon id="_218" points="1250 1250 179.5 2657 136.7 2623.6" class="st219"/><polygon id="_219" points="1250 1250 145.3 2630.3 103.4 2595.9" class="st220"/><polygon id="_220" points="1250 1250 111.8 2602.7 70.7 2567.3" class="st221"/><polygon id="_221" points="1250 1250 78.9 2574.4 38.7 2538" class="st222"/><polygon id="_222" points="1250 1250 46.8 2545.3 7.5 2507.9" class="st223"/><polygon id="_223" points="1250 1250 15.4 2515.3 -23 2477" class="st224"/><polygon id="_224" points="1250 1250 -15.4 2484.6 -52.7 2445.4" class="st225"/><polygon id="_225" points="1250 1250 -45.3 2453.2 -81.7 2413" class="st226"/><polygon id="_226" points="1250 1250 -74.4 2421.1 -109.8 2380" class="st227"/><polygon id="_227" points="1250 1250 -102.7 2388.2 -137.1 2346.3" class="st228"/><polygon id="_228" points="1250 1250 -130.3 2354.7 -163.6 2311.9" class="st229"/><polygon id="_229" points="1250 1250 -157 2320.5 -189.3 2276.9" class="st230"/><polygon id="_230" points="1250 1250 -182.8 2285.6 -214 2241.3" class="st231"/><polygon id="_231" points="1250 1250 -207.8 2250.2 -237.9 2205" class="st232"/><polygon id="_232" points="1250 1250 -231.9 2214.1 -260.9 2168.2" class="st233"/><polygon id="_233" points="1250 1250 -255.1 2177.4 -283 2130.9" class="st234"/><polygon id="_234" points="1250 1250 -277.4 2140.2 -304.1 2093" class="st235"/><polygon id="_235" points="1250 1250 -298.8 2102.4 -324.4 2054.6" class="st236"/><polygon id="_236" points="1250 1250 -319.3 2064.2 -343.6 2015.7" class="st237"/><polygon id="_237" points="1250 1250 -338.8 2025.4 -361.9 1976.4" class="st238"/><polygon id="_238" points="1250 1250 -357.3 1986.2 -379.3 1936.6" class="st239"/><polygon id="_239" points="1250 1250 -374.9 1946.5 -395.7 1896.4" class="st240"/><polygon id="_240" points="1250 1250 -391.5 1906.4 -411 1855.8" class="st241"/><polygon id="_241" points="1250 1250 -407.1 1866 -425.4 1814.9" class="st242"/><polygon id="_242" points="1250 1250 -421.8 1825.1 -438.7 1773.6" class="st243"/><polygon id="_243" points="1250 1250 -435.4 1783.9 -451.1 1732" class="st244"/><polygon id="_244" points="1250 1250 -448 1742.4 -462.4 1690.1" class="st245"/><polygon id="_245" points="1250 1250 -459.5 1700.6 -472.7 1647.9" class="st246"/><polygon id="_246" points="1250 1250 -470.1 1658.5 -481.9 1605.6" class="st247"/><polygon id="_247" points="1250 1250 -479.6 1616.1 -490.1 1562.9" class="st248"/><polygon id="_248" points="1250 1250 -488 1573.6 -497.3 1520.2" class="st249"/><polygon id="_249" points="1250 1250 -495.4 1530.8 -503.4 1477.2" class="st250"/><polygon id="_250" points="1250 1250 -501.8 1487.9 -508.4 1434.1" class="st251"/><polygon id="_251" points="1250 1250 -507.1 1444.8 -512.4 1390.9" class="st252"/><polygon id="_252" points="1250 1250 -511.4 1401.7 -515.4 1347.6" class="st253"/><polygon id="_253" points="1250 1250 -514.6 1358.4 -517.2 1304.2" class="st254"/><polygon id="_254" points="1250 1250 -516.7 1315.1 -518 1260.8" class="st255"/><polygon id="_255" points="1250 1250 -517.8 1271.7 -517.8 1228.3" class="st256"/></g></g></g></g></svg>