<?xml version="1.0" encoding="utf-8"?>
<!-- Generator: Adobe Illustrator 19.0.0, SVG Export Plug-In . SVG Version: 6.00 Build 0)  -->
<svg version="1.1" id="Layer_1" xmlns="http://www.w3.org/2000/svg" xmlns:xlink="http://www.w3.org/1999/xlink" x="0px" y="0px"
	 viewBox="0 0 500 500" style="enable-background:new 0 0 500 500;" xml:space="preserve">
<style type="text/css">
	.st0{fill:#D1E187;}
	.st1{fill-rule:evenodd;clip-rule:evenodd;fill:#FFFFFF;}
	.st2{fill-rule:evenodd;clip-rule:evenodd;fill:#8BC53F;}
	.st3{fill-rule:evenodd;clip-rule:evenodd;fill:#81211C;}
	.st4{fill-rule:evenodd;clip-rule:evenodd;fill:#EB2026;}
	.st5{fill:#8BC53F;}
</style>
<g id="XMLID_1_">
	<path id="XMLID_5_" class="st0" d="M222.3,164.1c0-3.1-2.5-5.6-5.6-5.6h0c-3.1,0-5.6,2.5-5.6,5.6v10.4c-0.5-0.1-1-0.1-1.5-0.1H161
		c-7,0-12.7,5.7-12.7,12.7v141.8c0,7,5.7,12.7,12.7,12.7h48.6c7,0,12.7-5.7,12.7-12.7V187c0-1-0.1-2-0.3-2.9
		c0.2-0.6,0.3-1.2,0.3-1.9V164.1z M215.6,255.5c0,9.1-7.3,16.4-16.4,16.4h-27.6c-9.1,0-16.4-7.3-16.4-16.4v-46.2
		c0-9.1,7.3-16.4,16.4-16.4h27.6c9.1,0,16.4,7.3,16.4,16.4V255.5z"/>
	<path id="XMLID_6_" class="st1" d="M171.3,192.9h28c8.9,0,16.2,7.3,16.2,16.2v46.6c0,8.9-7.3,16.2-16.2,16.2h-28
		c-8.9,0-16.2-7.3-16.2-16.2v-46.6C155.1,200.2,162.4,192.9,171.3,192.9z"/>
	<path id="XMLID_9_" class="st2" d="M385.9,272.8h16.6v-41.4h13.8v41.4h16.1v-59.1c-0.3-12-9.6-19.5-22.6-19.6
		c-14.9-0.1-23.4,6.9-24,18.9V272.8z M402.5,209.5c0.5-4.4,2-6.2,6.8-6.7c4.9,0.1,6.7,3,7,7.3v12h-13.8V209.5z"/>
	<path id="XMLID_10_" class="st3" d="M168,224.5c2.8,6.5,6.5,9.5,11.1,9.6c-7.1,5.3-14.8,8.6-22.9,10.6c-5.1-0.3-9.9-1.6-14.6-2.9
		C153.5,239.5,162.4,233.8,168,224.5z"/>
	<path id="XMLID_11_" class="st4" d="M199.1,207.7l33.4,16.9c-17,22.4-45.7,23-76.3,20.1C176.7,239.7,190.8,227.2,199.1,207.7z"/>
	<path id="XMLID_12_" class="st5" d="M136.4,201.3c-5.4-9.8-15.3-10.1-28.1-4c-7.7-6.9-15-3.9-24.7,0.3l-0.2-5h-16v78.3h16.4v-70.3
		c0.7,0,1.3-0.1,1.9-0.1c4.9,0,8.9,4,8.9,8.9v61.5h16.5v-70.3c0.3,0,0.7,0,1,0c2.6-0.1,5.1,0.9,6.9,2.7c1.9,1.8,2.9,4.3,2.9,6.8
		c0,8.4,0,25.7,0,60.8h16.2v-62c0-2.3-0.5-4.5-1.3-6.5C136.7,201.9,136.6,201.6,136.4,201.3z"/>
	<path id="XMLID_15_" class="st5" d="M278.3,205.3c-2.7-5.7-8.5-9.4-14.8-9.4h-29.8v75h16.1V237h10.8c10,0,18.4-7.4,19.7-17.3
		c0.1-0.6,0.1-1.2,0.2-1.8C280.6,213,279.9,208.7,278.3,205.3z M250.2,229.4v-25.8c7.6-1.1,13.4,1,13.8,13
		C263.8,227.3,258.1,230,250.2,229.4z"/>
	<path id="XMLID_16_" class="st5" d="M316,265.6c-0.1,0-0.5,0-0.6-0.1c-4.8-0.6-7.7-3.4-8.7-8.7c-0.1-0.7-0.2-1.4-0.2-2.1l0.1-23.9
		h16.8l3.1,0l0,0h0.5v-10.2h-20.4v-10.1c0-3,1.9-5.8,4.7-6.8c0.1,0,0.2-0.1,0.3-0.1c0.8-0.3,1.6-0.4,2.4-0.4l14.4,0.1l0.1-8.4
		L309,195c-12,0.4-18.5,5.3-18.8,15.2v43.6c0,3.2,0.7,6.5,2,9.4c0.6,1.3,1.2,2.5,1.7,3.3c3.1,4.9,7.4,6.6,12.4,6.8l1.9,0.1h22.4
		v-7.8H316z"/>
	<path id="XMLID_17_" class="st2" d="M367.8,273c-2.9,1.5-7.1,2.5-11.8,2.5c-5.7,0-10.7-1.4-13.4-3.6c-2.5-1.7-4.4-4.2-5.9-7.4
		c-1.1-2.5-2-5.5-2.5-8.9h15.3c0.2,0.9,0.4,1.8,0.6,2.6c0.3,1.1,0.8,2,1.3,2.8c1.1,1.5,2.5,2.5,4.5,2.8c0.9,0.1,1.7,0,2.6-0.2
		c1.7-0.5,3.1-1.2,4.1-2.2c2.4-2.4,2.9-6.1,1.1-10.5c-0.8-2.1-2.2-3.9-3.9-5.4c-10.8-9-22.8-17.7-24.1-29.4
		c-0.8-9.9,2.4-15.2,7.4-18c6.8-3.8,14.9-4.5,22.2-1.9c5.4,1.9,9.1,6,10.8,12.7c0.3,1.3,0.6,2.7,0.8,4.2h-15.1c-0.7-5.2-4-8-7.7-7.6
		c-1.5,0.2-2.9,0.9-3.8,2.1c-0.9,1.2-1.3,2.7-1,4.2c1.3,7.8,14.6,17.7,21,22.9c0.6,0.5,3,2.5,3.6,3.2
		C382.1,247.3,380.6,266.4,367.8,273z"/>
</g>
</svg>
