<svg xmlns="http://www.w3.org/2000/svg" width="735" height="339" version="1.1"><path fill="#0A2238" d="M0 0 C0.78375 0.639375 1.5675 1.27875 2.375 1.9375 C2.375 2.5975 2.375 3.2575 2.375 3.9375 C3.035 3.9375 3.695 3.9375 4.375 3.9375 C4.375 4.5975 4.375 5.2575 4.375 5.9375 C5.035 5.9375 5.695 5.9375 6.375 5.9375 C12.18812055 13.01359019 12.99984386 19.60211664 13.0625 28.5 C13.09053711 29.95321655 13.09053711 29.95321655 13.11914062 31.43579102 C12.98356859 40.12934775 10.02153801 47.2974584 4.375 53.9375 C3.715 53.9375 3.055 53.9375 2.375 53.9375 C2.375 54.5975 2.375 55.2575 2.375 55.9375 C-6.59940194 61.26923086 -14.88104281 64.73383519 -25.38671875 62.296875 C-32.26823441 60.29426559 -32.26823441 60.29426559 -33.625 58.9375 C-33.65005615 59.74493652 -33.6751123 60.55237305 -33.70092773 61.38427734 C-33.81665487 65.02718917 -33.93948635 68.66982726 -34.0625 72.3125 C-34.10181641 73.58351563 -34.14113281 74.85453125 -34.18164062 76.1640625 C-34.22353516 77.37578125 -34.26542969 78.5875 -34.30859375 79.8359375 C-34.34525146 80.95661621 -34.38190918 82.07729492 -34.41967773 83.23193359 C-34.625 85.9375 -34.625 85.9375 -35.625 87.9375 C-38.58357409 87.99129226 -41.54117721 88.03107093 -44.5 88.0625 C-45.34175781 88.07925781 -46.18351563 88.09601563 -47.05078125 88.11328125 C-47.85644531 88.11972656 -48.66210938 88.12617188 -49.4921875 88.1328125 C-50.23581543 88.14328613 -50.97944336 88.15375977 -51.74560547 88.16455078 C-53.625 87.9375 -53.625 87.9375 -55.625 85.9375 C-55.82359447 83.17722296 -55.89770803 80.51726731 -55.88378906 77.75585938 C-55.8872937 76.91021927 -55.89079834 76.06457916 -55.89440918 75.1933136 C-55.90323445 72.38920967 -55.89737456 69.58535664 -55.890625 66.78125 C-55.89197142 64.83833772 -55.89391176 62.89542577 -55.89642334 60.95251465 C-55.89937568 56.87700193 -55.89507342 52.80157677 -55.88574219 48.72607422 C-55.8743476 43.49341615 -55.88090649 38.26096322 -55.89288712 33.02831268 C-55.90010274 29.01526332 -55.89781916 25.00226285 -55.89263153 20.98921204 C-55.89129421 19.05943274 -55.89294562 17.12964905 -55.89759064 15.19987488 C-55.902651 12.50617658 -55.89495262 9.81281383 -55.88378906 7.11914062 C-55.88783752 6.31595901 -55.89188599 5.5127774 -55.89605713 4.68525696 C-55.85352821 -0.83397179 -55.85352821 -0.83397179 -53.625 -3.0625 C-50.79286839 -3.2618633 -48.08027632 -3.34070873 -45.25 -3.3125 C-44.48171875 -3.32023438 -43.7134375 -3.32796875 -42.921875 -3.3359375 C-38.86350373 -3.32189469 -36.22413845 -3.07071493 -32.625 -1.0625 C-30.06996043 -2.34538757 -30.06996043 -2.34538757 -27.625 -4.0625 C-18.47890433 -6.95174779 -8.03504822 -5.03605135 0 0 Z M-32.625 20.9375 C-34.99488617 24.77518664 -35.20841309 28.52385318 -34.625 32.9375 C-33.2601132 36.33991824 -33.2601132 36.33991824 -31.625 38.9375 C-30.965 38.9375 -30.305 38.9375 -29.625 38.9375 C-29.625 39.5975 -29.625 40.2575 -29.625 40.9375 C-25.74116479 43.52672348 -23.02377278 43.59092712 -18.4296875 43.51171875 C-14.19695225 42.64512811 -12.37122116 40.56169933 -9.87109375 37.15625 C-7.32753884 32.62728703 -7.22858686 28.88447604 -8.5625 24 C-9.0884375 22.4840625 -9.0884375 22.4840625 -9.625 20.9375 C-10.285 20.9375 -10.945 20.9375 -11.625 20.9375 C-11.955 19.9475 -12.285 18.9575 -12.625 17.9375 C-13.285 17.9375 -13.945 17.9375 -14.625 17.9375 C-14.625 17.2775 -14.625 16.6175 -14.625 15.9375 C-22.30989784 13.37586739 -27.11343075 15.41326048 -32.625 20.9375 Z" transform="translate(234.625,144.0625)"/><path fill="#0C243A" d="M0 0 C3.27053517 -0.11608726 6.5405418 -0.18720711 9.8125 -0.25 C10.74126953 -0.28351563 11.67003906 -0.31703125 12.62695312 -0.3515625 C13.9659668 -0.37089844 13.9659668 -0.37089844 15.33203125 -0.390625 C16.56530151 -0.4220459 16.56530151 -0.4220459 17.82348633 -0.45410156 C20 0 20 0 21.70019531 1.72998047 C23.04070399 4.07108673 23.78949906 6.10326314 24.46484375 8.7109375 C24.82618408 10.07460449 24.82618408 10.07460449 25.19482422 11.46582031 C25.43990723 12.42584961 25.68499023 13.38587891 25.9375 14.375 C26.45888228 16.35696911 26.98101842 18.33874006 27.50390625 20.3203125 C27.75672363 21.28743164 28.00954102 22.25455078 28.27001953 23.25097656 C29.53933113 28.03105969 30.93984441 32.77117856 32.3359375 37.515625 C33 40 33 40 33 42 C33.66 42 34.32 42 35 42 C35.12632812 41.19304687 35.25265625 40.38609375 35.3828125 39.5546875 C36.10682327 35.38475203 36.97089971 31.25901583 37.875 27.125 C38.03613281 26.36058594 38.19726562 25.59617188 38.36328125 24.80859375 C39.20354609 20.97203569 40.18367513 17.33423248 41.6015625 13.66796875 C43.14322654 10.04988346 43.14322654 10.04988346 43.5 6.1875 C44.03951982 2.74806116 44.30747996 2.02331553 47 0 C49.16064453 -0.35644531 49.16064453 -0.35644531 51.6328125 -0.328125 C52.96505859 -0.32039062 52.96505859 -0.32039062 54.32421875 -0.3125 C55.24847656 -0.291875 56.17273438 -0.27125 57.125 -0.25 C58.05699219 -0.24484375 58.98898437 -0.2396875 59.94921875 -0.234375 C66.84593612 -0.15406388 66.84593612 -0.15406388 68 1 C67.56762221 7.94593998 65.97289606 14.13774452 63.875 20.75 C63.5658667 21.74717041 63.2567334 22.74434082 62.93823242 23.77172852 C60.55351035 31.40705989 58.00308502 38.98319806 55.41992188 46.55322266 C53.63304272 51.86422459 52.14234611 57.16833451 50.875 62.625 C48.07370677 74.27932544 43.93999223 84.20525167 33.828125 91.19140625 C29.63990237 93.48189251 25.82255927 93.6110206 21.125 93.5 C19.93898193 93.48839844 19.93898193 93.48839844 18.72900391 93.4765625 C12.67702651 93.296986 8.26107229 92.11767247 3 89 C3 88.34 3 87.68 3 87 C2.34 87 1.68 87 1 87 C-0.14106932 83.8213069 -0.30512539 81.74170797 0.98828125 78.59765625 C4.60081168 72.43395878 4.60081168 72.43395878 8.078125 71.35546875 C11.80954816 71.27945828 13.89964977 71.93309985 17 74 C19.33199388 74.07905064 21.66832622 74.08798769 24 74 C24.99 70.7 25.98 67.4 27 64 C25.741875 64.0825 24.48375 64.165 23.1875 64.25 C21.04296875 64.390625 21.04296875 64.390625 19 64 C16.38572708 61.3051926 15.30323125 58.47829096 14.1875 54.9375 C13.85234375 53.88949219 13.5171875 52.84148437 13.171875 51.76171875 C12.78515625 50.52035156 12.3984375 49.27898437 12 48 C11.24334423 45.58622687 10.4852208 43.17292391 9.72583008 40.76000977 C9.21222891 39.12472528 8.70150364 37.4885339 8.1940918 35.85131836 C6.83612502 31.5019149 5.36666909 27.2262229 3.74291992 22.96923828 C2.47559065 19.60996195 1.31298131 16.22156659 0.1875 12.8125 C-0.05419922 12.12736328 -0.29589844 11.44222656 -0.54492188 10.73632812 C-1.63002457 7.4106004 -2.12012712 5.41582465 -1.13671875 2.01171875 C-0.76160156 1.34785156 -0.38648438 0.68398437 0 0 Z" transform="translate(323,141)"/><path fill="#0E263B" d="M0 0 C0.99 0.33 1.98 0.66 3 1 C3.66 0.34 4.32 -0.32 5 -1 C7.87342061 -1.19856972 10.62861988 -1.27828946 13.5 -1.25 C14.28503906 -1.25773438 15.07007813 -1.26546875 15.87890625 -1.2734375 C21.74669213 -1.25330787 21.74669213 -1.25330787 24 1 C24.25396729 3.50488281 24.25396729 3.50488281 24.25878906 6.703125 C24.26509338 7.89776367 24.27139771 9.09240234 24.27789307 10.32324219 C24.2738446 11.61907227 24.26979614 12.91490234 24.265625 14.25 C24.26697178 15.58756582 24.26891243 16.92513117 24.27142334 18.26269531 C24.274374 21.06710466 24.27007894 23.87138669 24.26074219 26.67578125 C24.24934754 30.27404922 24.25590734 33.87201886 24.26788712 37.47027588 C24.27510736 40.23260758 24.27281706 42.99486833 24.26763153 45.75720215 C24.26564475 47.73038933 24.27172842 49.70357926 24.27789307 51.67675781 C24.26843658 53.46871582 24.26843658 53.46871582 24.25878906 55.296875 C24.25719788 56.35229492 24.25560669 57.40771484 24.25396729 58.49511719 C24 61 24 61 22 63 C19.14722446 63.19896281 16.41332628 63.27824931 13.5625 63.25 C12.39750977 63.26160156 12.39750977 63.26160156 11.20898438 63.2734375 C7.29947832 63.25996806 5.32052968 63.21368645 2 61 C-0.22506985 61.65291902 -0.22506985 61.65291902 -2.5625 62.875 C-10.57614322 66.30609543 -17.55829546 65.64424236 -25.7265625 62.92578125 C-28.90307299 61.63225378 -31.33984114 60.1701296 -34 58 C-34 57.34 -34 56.68 -34 56 C-34.99 55.67 -35.98 55.34 -37 55 C-37.6875 52.9375 -37.6875 52.9375 -38 51 C-38.66 51 -39.32 51 -40 51 C-45.30218084 41.23412274 -46.40668135 29.86258878 -44 19 C-42.63368286 15.77232328 -40.97878077 12.88810488 -39 10 C-38.23816406 8.88431641 -38.23816406 8.88431641 -37.4609375 7.74609375 C-36.97882813 7.16988281 -36.49671875 6.59367188 -36 6 C-35.34 6 -34.68 6 -34 6 C-34 5.34 -34 4.68 -34 4 C-24.04897503 -4.25723349 -11.54333194 -5.06286489 0 0 Z M-20 21 C-20 21.66 -20 22.32 -20 23 C-20.66 23 -21.32 23 -22 23 C-23.7247037 28.85072563 -24.7129885 33.24846437 -22 39 C-19.37170646 42.44344545 -16.79626751 44.63347189 -12.4921875 45.51171875 C-8.36089283 45.69053598 -5.71020179 45.39287759 -2.0625 43.375 C1.83339413 38.88881888 3.58554933 34.87149006 3.359375 28.95703125 C2.54119315 24.50149746 -0.62813579 20.87861789 -4 18 C-10.45804888 15.90989503 -14.60872812 17.21463889 -20 21 Z" transform="translate(545,142)"/><path fill="#092137" d="M0 0 C2.0769097 0.81607527 2.0769097 0.81607527 4.9453125 0.65625 C5.2753125 0.32625 5.6053125 -0.00375 5.9453125 -0.34375 C7.27574875 -0.4421221 8.61124594 -0.47453592 9.9453125 -0.4765625 C10.7496875 -0.47785156 11.5540625 -0.47914063 12.3828125 -0.48046875 C13.2284375 -0.47660156 14.0740625 -0.47273437 14.9453125 -0.46875 C16.21375 -0.47455078 16.21375 -0.47455078 17.5078125 -0.48046875 C18.3121875 -0.47917969 19.1165625 -0.47789062 19.9453125 -0.4765625 C20.6878125 -0.47543457 21.4303125 -0.47430664 22.1953125 -0.47314453 C23.9453125 -0.34375 23.9453125 -0.34375 24.9453125 0.65625 C25.03927307 2.58931498 25.06274767 4.52583838 25.05883789 6.46118164 C25.05872459 8.32299828 25.05872459 8.32299828 25.05860901 10.22242737 C25.05350161 11.5870874 25.0482856 12.95174702 25.04296875 14.31640625 C25.0411045 15.70503183 25.03968063 17.09365807 25.03868103 18.48228455 C25.03485637 22.14346115 25.02502653 25.8045983 25.01397705 29.46575928 C25.00376182 33.19917263 24.99918317 36.93259234 24.99414062 40.66601562 C24.98340421 47.99611177 24.96632841 55.32617536 24.9453125 62.65625 C21.81681991 64.22049629 18.50101166 63.84071398 15.0703125 63.84375 C14.34972656 63.85599609 13.62914062 63.86824219 12.88671875 63.88085938 C7.41645885 63.89597059 7.41645885 63.89597059 4.7265625 62.52734375 C2.91283495 61.38930987 2.91283495 61.38930987 0.71875 62.3359375 C-0.07273437 62.73039062 -0.86421875 63.12484375 -1.6796875 63.53125 C-9.5269441 66.9255912 -16.63217175 66.38042192 -24.6640625 63.703125 C-32.44567103 60.29549251 -37.91110969 54.69856612 -41.3046875 46.96875 C-43.09163597 41.77035444 -43.4497011 36.91315801 -43.4921875 31.46875 C-43.50217773 30.72085205 -43.51216797 29.9729541 -43.52246094 29.20239258 C-43.39467144 20.92437152 -40.38361108 13.02806554 -35.0546875 6.65625 C-24.85224875 -2.4383933 -12.77270953 -4.94427466 0 0 Z M-19.0546875 21.65625 C-19.0546875 22.31625 -19.0546875 22.97625 -19.0546875 23.65625 C-19.7146875 23.65625 -20.3746875 23.65625 -21.0546875 23.65625 C-22.84640849 29.73431891 -23.34014412 33.68866883 -21.0546875 39.65625 C-20.3946875 39.65625 -19.7346875 39.65625 -19.0546875 39.65625 C-19.0546875 40.31625 -19.0546875 40.97625 -19.0546875 41.65625 C-18.3946875 41.65625 -17.7346875 41.65625 -17.0546875 41.65625 C-17.0546875 42.31625 -17.0546875 42.97625 -17.0546875 43.65625 C-12.81201814 46.48469624 -9.03697455 46.30992606 -4.0546875 45.65625 C-0.55254015 43.56986434 1.78845156 41.09638295 3.9453125 37.65625 C4.75459603 32.35580739 4.87086946 27.33596449 2.2578125 22.59375 C-1.35265121 19.56876689 -3.66667271 17.83617784 -8.4296875 17.21875 C-12.93661845 17.76268994 -15.28114335 19.19189464 -19.0546875 21.65625 Z" transform="translate(294.0546875,141.34375)"/><path fill="#0B2338" d="M0 0 C0.78503906 -0.01224609 1.57007813 -0.02449219 2.37890625 -0.03710938 C4.42063726 -0.04236254 6.46192251 0.0652982 8.5 0.1875 C10.5 2.1875 10.5 2.1875 10.74050903 4.21231079 C10.7338472 5.45807388 10.7338472 5.45807388 10.72705078 6.72900391 C10.72689972 7.66982819 10.72674866 8.61065247 10.72659302 9.57998657 C10.71627045 10.59773163 10.70594788 11.61547668 10.6953125 12.6640625 C10.6924826 13.70444672 10.68965271 14.74483093 10.68673706 15.81674194 C10.67551704 19.14877694 10.65040915 22.48054586 10.625 25.8125 C10.61497256 28.06770446 10.6058463 30.32291312 10.59765625 32.578125 C10.57557178 38.11467454 10.54207639 43.65106827 10.5 49.1875 C11.16 49.1875 11.82 49.1875 12.5 49.1875 C12.5 48.5275 12.5 47.8675 12.5 47.1875 C13.16 47.1875 13.82 47.1875 14.5 47.1875 C14.768125 46.465625 15.03625 45.74375 15.3125 45 C16.49901362 42.18983617 17.77485639 39.70333443 19.5 37.1875 C20.16 37.1875 20.82 37.1875 21.5 37.1875 C21.7475 36.465625 21.995 35.74375 22.25 35 C23.72877276 31.67276129 24.81144767 29.68876927 27.5 27.1875 C30.72485712 26.53804961 33.85032216 26.67076021 37.125 26.8125 C37.99640625 26.82667969 38.8678125 26.84085938 39.765625 26.85546875 C46.1315696 27.0032848 46.1315696 27.0032848 48.5 28.1875 C48.80113021 32.19836289 48.30465873 34.0543124 45.796875 37.18359375 C45.22839844 37.90740234 44.65992188 38.63121094 44.07421875 39.37695312 C43.47222656 40.11880859 42.87023437 40.86066406 42.25 41.625 C41.07648642 43.10156379 39.90457784 44.57940477 38.734375 46.05859375 C37.9000293 47.11216064 37.9000293 47.11216064 37.04882812 48.18701172 C33.14113508 52.74537375 33.14113508 52.74537375 31.5 58.1875 C32.16 58.1875 32.82 58.1875 33.5 58.1875 C34.55058207 59.82275383 35.53837351 61.49840194 36.5 63.1875 C37.96581263 65.34437715 39.44139455 67.48949056 40.9375 69.625 C43.23056377 72.90798674 45.51438133 76.1943304 47.72265625 79.53515625 C49.25493619 82.00703167 49.25493619 82.00703167 50.5 83.1875 C50.54092937 85.52047433 50.54241723 87.85455225 50.5 90.1875 C47.09623106 91.88938447 43.31324101 91.37208114 39.5625 91.375 C38.73814453 91.38724609 37.91378906 91.39949219 37.06445312 91.41210938 C36.27103516 91.41404297 35.47761719 91.41597656 34.66015625 91.41796875 C33.93449463 91.42207764 33.20883301 91.42618652 32.46118164 91.43041992 C30.5 91.1875 30.5 91.1875 27.5 89.1875 C27.5 88.5275 27.5 87.8675 27.5 87.1875 C26.84 87.1875 26.18 87.1875 25.5 87.1875 C25.5 86.1975 25.5 85.2075 25.5 84.1875 C24.84 84.1875 24.18 84.1875 23.5 84.1875 C22.16796875 82.24609375 22.16796875 82.24609375 20.6875 79.625 C16.67538329 71.86015639 16.67538329 71.86015639 10.5 66.1875 C10.5 74.1075 10.5 82.0275 10.5 90.1875 C6.7776599 91.42828003 3.31203967 91.33305459 -0.5625 91.3125 C-1.29533203 91.31636719 -2.02816406 91.32023437 -2.78320312 91.32421875 C-8.24663018 91.31418491 -8.24663018 91.31418491 -10.5 90.1875 C-10.5 60.8175 -10.5 31.4475 -10.5 1.1875 C-7.21646451 -0.45426774 -3.60480362 0.00295961 0 0 Z" transform="translate(651.5,113.8125)"/><path fill="#0B2338" d="M0 0 C0 0.66 0 1.32 0 2 C0.66 2 1.32 2 2 2 C2.75 3.625 2.75 3.625 3 6 C0.86094763 9.80275977 -1.51810366 13.33737339 -5 16 C-9.41845161 16.94681106 -12.10956476 15.53885473 -15.9375 13.5 C-20.1498892 11.27327017 -23.15270672 10.10968083 -28 11 C-29.69841069 12.97066615 -29.69841069 12.97066615 -31 15 C-29.73285156 15.24234375 -28.46570313 15.4846875 -27.16015625 15.734375 C-4.93992922 20.11008439 -4.93992922 20.11008439 1.625 27.9375 C4.65611719 32.48417578 4.3501587 37.71997533 4 43 C2.57652022 49.59976988 -1.44725543 54.29817029 -7 58 C-18.67464239 62.73612371 -31.24748809 62.09453403 -43 58 C-45.50587333 56.81501922 -47.67885432 55.52984602 -50 54 C-50 53.34 -50 52.68 -50 52 C-50.99 51.67 -51.98 51.34 -53 51 C-54 47.9375 -54 47.9375 -54 44 C-51.39559384 40.32402619 -48.19160939 37.4139296 -43.68359375 36.5625 C-41.5 36.5625 -41.5 36.5625 -38 37 C-37.6596875 37.9590625 -37.6596875 37.9590625 -37.3125 38.9375 C-36.16086307 41.25653741 -36.16086307 41.25653741 -33.5 41.6875 C-32.675 41.790625 -31.85 41.89375 -31 42 C-30.34 42.33 -29.68 42.66 -29 43 C-27.12620395 43.07033769 -25.24998898 43.0843022 -23.375 43.0625 C-22.37210937 43.05347656 -21.36921875 43.04445312 -20.3359375 43.03515625 C-19.56507813 43.02355469 -18.79421875 43.01195312 -18 43 C-18.11306697 41.04105639 -18.11306697 41.04105639 -19 39 C-22.70259714 36.98286299 -26.69810074 36.39616634 -30.8125 35.625 C-38.22261297 34.08090316 -45.10913296 32.20763893 -50 26 C-53.05717094 19.62077689 -53.02728791 12.4028912 -51 5.6875 C-45.77055034 -1.33957299 -40.65630524 -4.82153491 -32.0078125 -6.56640625 C-20.6338552 -8.20602867 -9.68677417 -6.3844648 0 0 Z" transform="translate(443,146)"/><path fill="#0B2439" d="M0 0 C2.375 2.0625 2.375 2.0625 4 4 C4 4.66 4 5.32 4 6 C4.66 6 5.32 6 6 6 C7.46707062 8.33005333 8.0263557 9.6304212 7.828125 12.41015625 C6.77962314 15.68919743 5.43294612 16.71899894 2.6875 18.75 C1.90761719 19.34296875 1.12773438 19.9359375 0.32421875 20.546875 C-1.88793851 21.92993803 -3.42304918 22.69206248 -6 23 C-9.67912958 21.25241345 -12.19243523 18.90437735 -15 16 C-18.1836433 14.40817835 -21.53426643 14.60087521 -25 15 C-27.81780534 16.38885248 -27.81780534 16.38885248 -30 18 C-30.66 18 -31.32 18 -32 18 C-32.34274406 19.66475686 -32.67364302 21.33195323 -33 23 C-33.2475 23.928125 -33.495 24.85625 -33.75 25.8125 C-34.17773724 31.26614975 -32.38287669 35.32378583 -28.9375 39.5 C-24.75423491 41.63613536 -20.61420662 41.8680965 -16 41 C-14.32900615 39.53261463 -14.32900615 39.53261463 -13 38 C-12.34 38 -11.68 38 -11 38 C-10.67 37.01 -10.34 36.02 -10 35 C-7.5 33.4375 -7.5 33.4375 -4 33 C0.42245287 35.13965352 4.86813191 38.17328015 8 42 C7.75528519 44.99775644 7.34661086 47.30677828 6 50 C5.34 50 4.68 50 4 50 C3.34 51.32 2.68 52.64 2 54 C1.34 54 0.68 54 0 54 C0 54.66 0 55.32 0 56 C-8.93736735 62.12848047 -19.40060389 63.37071336 -29.9453125 61.46875 C-35.31951247 60.12153911 -39.73009527 58.57748774 -44 55 C-44 54.34 -44 53.68 -44 53 C-44.99 52.67 -45.98 52.34 -47 52 C-47 51.34 -47 50.68 -47 50 C-47.66 50 -48.32 50 -49 50 C-49.66 48.02 -50.32 46.04 -51 44 C-51.66 44 -52.32 44 -53 44 C-56.73947788 32.29187282 -56.73947788 23.70812718 -53 12 C-52.34 12 -51.68 12 -51 12 C-50.34 10.02 -49.68 8.04 -49 6 C-48.34 6 -47.68 6 -47 6 C-46.67 5.01 -46.34 4.02 -46 3 C-45.34 3 -44.68 3 -44 3 C-44 2.34 -44 1.68 -44 1 C-29.88465871 -7.74283551 -14.58912982 -8.68400585 0 0 Z" transform="translate(629,145)"/><path fill="#10273C" d="M0 0 C3.14581423 -0.02888514 6.29159469 -0.04675923 9.4375 -0.0625 C10.33533203 -0.07087891 11.23316406 -0.07925781 12.15820312 -0.08789062 C13.01220703 -0.09111328 13.86621094 -0.09433594 14.74609375 -0.09765625 C15.93223267 -0.10551147 15.93223267 -0.10551147 17.14233398 -0.11352539 C19 0 19 0 20 1 C20.08631874 2.34267413 20.10706473 3.68974322 20.09765625 5.03515625 C20.09443359 5.84404297 20.09121094 6.65292969 20.08789062 7.48632812 C20.07532227 8.7615332 20.07532227 8.7615332 20.0625 10.0625 C20.05798828 10.91650391 20.05347656 11.77050781 20.04882812 12.65039062 C20.03700373 14.76695663 20.01906769 16.88348685 20 19 C21.27617187 18.97679687 22.55234375 18.95359375 23.8671875 18.9296875 C25.5364525 18.91093171 27.2057238 18.89273131 28.875 18.875 C29.71675781 18.85824219 30.55851562 18.84148437 31.42578125 18.82421875 C32.63427734 18.81455078 32.63427734 18.81455078 33.8671875 18.8046875 C34.61081543 18.79421387 35.35444336 18.78374023 36.12060547 18.77294922 C38 19 38 19 40 21 C40.265625 24.1875 40.265625 24.1875 40.25 28 C40.25773437 29.8871875 40.25773437 29.8871875 40.265625 31.8125 C40 35 40 35 38 37 C36.12060547 37.22705078 36.12060547 37.22705078 33.8671875 37.1953125 C33.06152344 37.18886719 32.25585938 37.18242187 31.42578125 37.17578125 C30.16314453 37.15064453 30.16314453 37.15064453 28.875 37.125 C27.60076172 37.11146484 27.60076172 37.11146484 26.30078125 37.09765625 C24.20040116 37.07405647 22.10016556 37.03818483 20 37 C20.10948106 41.1255669 20.24020225 45.25018878 20.375 49.375 C20.4059375 50.550625 20.436875 51.72625 20.46875 52.9375 C20.52675781 54.61972656 20.52675781 54.61972656 20.5859375 56.3359375 C20.6173584 57.37282715 20.6487793 58.4097168 20.68115234 59.47802734 C20.75954472 62.16809835 20.75954472 62.16809835 23 64 C25.91102966 63.58413862 28.7061761 62.82655324 31.5625 62.125 C33.2640625 62.063125 33.2640625 62.063125 35 62 C37.25 64.125 37.25 64.125 39 67 C39.598125 67.825 40.19625 68.65 40.8125 69.5 C42 72 42 72 42 74.5 C40.61431357 77.96421608 38.90448062 79.66378732 36 82 C28.1539338 84.7489867 17.93374756 85.83546891 9.9375 82.9375 C3.64443577 78.78675551 0.62800064 74.17441167 -1.41552734 66.97583008 C-2.52855041 61.30889686 -2.30757461 55.626266 -2.1875 49.875 C-2.16719727 48.01101562 -2.16719727 48.01101562 -2.14648438 46.109375 C-2.11144295 43.07245169 -2.06231433 40.03646533 -2 37 C-3.27875 37.04125 -4.5575 37.0825 -5.875 37.125 C-8.0546875 37.1953125 -8.0546875 37.1953125 -10 37 C-12 35 -12 35 -12.265625 31.8125 C-12.26046875 30.554375 -12.2553125 29.29625 -12.25 28 C-12.25515625 26.741875 -12.2603125 25.48375 -12.265625 24.1875 C-12 21 -12 21 -10 19 C-7.31160615 18.73008094 -4.70858064 18.91262643 -2 19 C-2.02320313 17.96359375 -2.04640625 16.9271875 -2.0703125 15.859375 C-2.08907667 14.48959056 -2.10727618 13.1197983 -2.125 11.75 C-2.14175781 11.06808594 -2.15851563 10.38617188 -2.17578125 9.68359375 C-2.21312151 5.83754742 -1.86121729 3.33602269 0 0 Z" transform="translate(460,122)"/><path fill="#12C2F8" d="M0 0 C1.43723419 -0.01051392 1.43723419 -0.01051392 2.90350342 -0.02124023 C6.07211251 -0.0388511 9.23982901 -0.02718527 12.40844727 -0.01367188 C14.61035839 -0.01636611 16.81226836 -0.02024796 19.01417542 -0.02526855 C23.63017091 -0.03116799 28.24585688 -0.02258687 32.86181641 -0.00390625 C38.77811325 0.01886986 44.69368376 0.00577107 50.60995388 -0.01819611 C55.15759244 -0.03265327 59.70505896 -0.02804816 64.25270271 -0.01768494 C66.43399199 -0.01501675 68.61529689 -0.01829063 70.79656792 -0.02760315 C73.84656993 -0.03776558 76.89539789 -0.02227056 79.9453125 0 C81.29750633 -0.01214539 81.29750633 -0.01214539 82.67701721 -0.02453613 C86.75832206 0.03065459 89.01438516 0.21091136 92.5997467 2.31335449 C95.40628853 5.50607955 95.1973285 8.54070967 95.03735352 12.58007812 C95.0412207 13.65999023 95.0412207 13.65999023 95.04516602 14.76171875 C94.94856001 19.96395195 94.94856001 19.96395195 93.2713623 22.22204018 C91.12150269 23.82827466 89.99007842 23.89448488 87.32446289 23.89852905 C86.03741455 23.91121826 86.03741455 23.91121826 84.72436523 23.92416382 C83.78608887 23.91809113 82.8478125 23.91201843 81.88110352 23.90576172 C80.89062012 23.91101868 79.90013672 23.91627563 78.87963867 23.92169189 C75.59871753 23.93491835 72.31827977 23.92614427 69.03735352 23.91601562 C66.76196194 23.91803559 64.48657099 23.92094639 62.21118164 23.92471313 C57.43963464 23.92914008 52.66825597 23.92269338 47.89672852 23.90869141 C41.77293499 23.89159948 35.64953588 23.90143866 29.52575684 23.9194088 C24.82638565 23.93023653 20.12710835 23.92680491 15.42773438 23.91902542 C13.16943312 23.91702062 10.91112341 23.91949244 8.65283203 23.92646408 C5.49952533 23.9340618 2.34686214 23.92249754 -0.80639648 23.90576172 C-1.74467285 23.91183441 -2.68294922 23.9179071 -3.6496582 23.92416382 C-4.50769043 23.91570435 -5.36572266 23.90724487 -6.24975586 23.89852905 C-6.9952771 23.89739798 -7.74079834 23.8962669 -8.50891113 23.89510155 C-11.05290034 23.40352242 -11.9306759 22.58372644 -13.46264648 20.51757812 C-13.78849029 17.77285779 -13.92713151 15.32028435 -13.90014648 12.58007812 C-13.93011719 11.5059668 -13.93011719 11.5059668 -13.96069336 10.41015625 C-13.95775368 7.23823748 -13.77523504 4.99619695 -12.02305603 2.31335449 C-8.1543359 -0.40002243 -4.62080776 -0.04141104 0 0 Z" transform="translate(45.462646484375,152.482421875)"/><path fill="#0EC3F7" d="M0 0 C0.91099457 -0.00700928 1.82198914 -0.01401855 2.7605896 -0.02124023 C5.77169278 -0.0388444 8.78185602 -0.02718876 11.79296875 -0.01367188 C13.88517436 -0.01636609 15.97737876 -0.02024792 18.06958008 -0.02526855 C22.45438559 -0.03116689 26.83886518 -0.02258967 31.22363281 -0.00390625 C36.84633833 0.01888328 42.46828015 0.00576202 48.09095764 -0.01819611 C52.41123212 -0.03264489 56.73132531 -0.02805227 61.05160522 -0.01768494 C63.12486867 -0.01501512 65.19814854 -0.01829635 67.27139282 -0.02760315 C70.16835171 -0.03775342 73.06407103 -0.02228876 75.9609375 0 C76.81924164 -0.00809692 77.67754578 -0.01619385 78.56185913 -0.02453613 C84.37837547 0.05844159 84.37837547 0.05844159 87.48168945 2.42492676 C89.87791309 5.77062328 90.14029216 7.73947857 90.16796875 11.83007812 C90.18214844 12.77496094 90.19632812 13.71984375 90.2109375 14.69335938 C89.96134467 17.75192919 89.45042447 19.82343216 87.98046875 22.51757812 C84.17609118 25.32549135 79.65800093 24.79813059 75.14453125 24.77636719 C73.80730011 24.78162415 73.80730011 24.78162415 72.4430542 24.7869873 C69.4971131 24.79578758 66.55141228 24.78996144 63.60546875 24.78320312 C61.558105 24.78455026 59.51074156 24.7864912 57.46337891 24.78900146 C53.17282058 24.79195042 48.88234553 24.78766238 44.59179688 24.77832031 C39.09035615 24.76692595 33.58911057 24.77348664 28.087677 24.78546524 C23.86009245 24.79268997 19.63255421 24.79039308 15.40496826 24.78520966 C13.37636288 24.78387486 11.34775331 24.78551493 9.31915283 24.79016876 C6.48479055 24.795244 3.65074493 24.78750961 0.81640625 24.77636719 C-0.02319641 24.78041565 -0.86279907 24.78446411 -1.72784424 24.78863525 C-8.99845532 24.7356466 -8.99845532 24.7356466 -12.01953125 22.51757812 C-13.58482168 19.38699727 -13.28644439 16.07678805 -13.33203125 12.64257812 C-13.36103516 11.92199219 -13.39003906 11.20140625 -13.41992188 10.45898438 C-13.45837023 7.2470682 -13.35370534 5.02159988 -11.55664062 2.31115723 C-7.7990676 -0.34521404 -4.50006515 -0.04245195 0 0 Z" transform="translate(45.01953125,124.482421875)"/><path fill="#0AC3F7" d="M0 0 C0.91099457 -0.00700928 1.82198914 -0.01401855 2.7605896 -0.02124023 C5.77169278 -0.0388444 8.78185602 -0.02718876 11.79296875 -0.01367188 C13.88517436 -0.01636609 15.97737876 -0.02024792 18.06958008 -0.02526855 C22.45438559 -0.03116689 26.83886518 -0.02258967 31.22363281 -0.00390625 C36.84633833 0.01888328 42.46828015 0.00576202 48.09095764 -0.01819611 C52.41123212 -0.03264489 56.73132531 -0.02805227 61.05160522 -0.01768494 C63.12486867 -0.01501512 65.19814854 -0.01829635 67.27139282 -0.02760315 C70.16835171 -0.03775342 73.06407103 -0.02228876 75.9609375 0 C76.81924164 -0.00809692 77.67754578 -0.01619385 78.56185913 -0.02453613 C84.37837547 0.05844159 84.37837547 0.05844159 87.48168945 2.42492676 C89.85107788 5.73315495 90.16414735 7.72197258 90.23046875 11.76757812 C90.25625 12.70085937 90.28203125 13.63414062 90.30859375 14.59570312 C89.91768215 18.07667785 88.59808869 20.43715996 86.98046875 23.51757812 C74.23743205 23.58697344 61.49444003 23.64033605 48.75125313 23.67301464 C42.83458933 23.68869573 36.91805444 23.70997856 31.00146484 23.74389648 C25.29565024 23.7764028 19.58995993 23.79441271 13.88405991 23.80220985 C11.70306312 23.80776909 9.52207342 23.81862431 7.3411293 23.8347683 C4.29513903 23.8564265 1.24966768 23.85954992 -1.79638672 23.8581543 C-2.70556854 23.86894012 -3.61475037 23.87972595 -4.55148315 23.89083862 C-7.05856323 23.87834167 -7.05856323 23.87834167 -11.01953125 23.51757812 C-13.49164978 19.80940033 -13.38684117 16.87498802 -13.39453125 12.58007812 C-13.41902344 11.86400391 -13.44351562 11.14792969 -13.46875 10.41015625 C-13.48650726 7.21680944 -13.34227874 5.00315148 -11.55444336 2.31335449 C-7.79903966 -0.3470396 -4.5002505 -0.0424537 0 0 Z" transform="translate(45.01953125,180.482421875)"/><path fill="#19C1F8" d="M0 0 C1.63673424 -0.00922989 1.63673424 -0.00922989 3.30653381 -0.01864624 C5.06603615 0.00291031 5.06603615 0.00291031 6.86108398 0.02490234 C8.06909164 0.02581879 9.2770993 0.02673523 10.52171326 0.02767944 C13.07457409 0.03372016 15.62742767 0.04948002 18.18017578 0.07421875 C22.09556072 0.11073151 26.0099997 0.11523809 29.92553711 0.11474609 C32.40406094 0.12457678 34.88257835 0.13623356 37.36108398 0.14990234 C39.12362267 0.15324081 39.12362267 0.15324081 40.92176819 0.15664673 C42.55377419 0.17578629 42.55377419 0.17578629 44.21875 0.1953125 C45.65626366 0.20674789 45.65626366 0.20674789 47.12281799 0.21841431 C49.54467773 0.48583984 49.54467773 0.48583984 52.54467773 2.48583984 C53.69915949 5.94928511 53.74872865 8.77421711 53.79467773 12.42333984 C53.82045898 13.64923828 53.84624023 14.87513672 53.87280273 16.13818359 C53.5135879 19.80303019 53.11230606 20.93143117 50.54467773 23.48583984 C47.99546814 23.98704529 47.99546814 23.98704529 44.91162109 23.98754883 C43.75709946 23.99692978 42.60257782 24.00631073 41.41307068 24.01597595 C40.16614944 24.00474197 38.91922821 23.993508 37.63452148 23.98193359 C36.35613907 23.98338882 35.07775665 23.98484406 33.76063538 23.98634338 C31.05586217 23.98468185 28.35249011 23.97516966 25.64794922 23.95239258 C22.17845713 23.92397833 18.70984429 23.9267523 15.24028683 23.93948269 C11.93414137 23.94810094 8.62813931 23.93300008 5.32202148 23.91943359 C3.44860329 23.92383705 3.44860329 23.92383705 1.53733826 23.92832947 C0.38596878 23.91564529 -0.7654007 23.90296112 -1.95166016 23.88989258 C-2.96853409 23.88448959 -3.98540802 23.87908661 -5.03309631 23.8735199 C-6.23209816 23.68161827 -6.23209816 23.68161827 -7.45532227 23.48583984 C-9.92744079 19.77766205 -9.82263219 16.84324974 -9.83032227 12.54833984 C-9.85481445 11.83226562 -9.87930664 11.11619141 -9.90454102 10.37841797 C-9.92309863 7.04113989 -9.82522895 4.96934867 -7.76747131 2.27963257 C-4.93841757 0.08481903 -3.54759966 -0.01054154 0 0 Z" transform="translate(41.455322265625,208.51416015625)"/><path fill="#1AC1F9" d="M0 0 C1.43723419 -0.01051392 1.43723419 -0.01051392 2.90350342 -0.02124023 C6.07211251 -0.0388511 9.23982901 -0.02718527 12.40844727 -0.01367188 C14.61035839 -0.01636611 16.81226836 -0.02024796 19.01417542 -0.02526855 C23.63017091 -0.03116799 28.24585688 -0.02258687 32.86181641 -0.00390625 C38.77811325 0.01886986 44.69368376 0.00577107 50.60995388 -0.01819611 C55.15759244 -0.03265327 59.70505896 -0.02804816 64.25270271 -0.01768494 C66.43399199 -0.01501675 68.61529689 -0.01829063 70.79656792 -0.02760315 C73.84656993 -0.03776558 76.89539789 -0.02227056 79.9453125 0 C81.29750633 -0.01214539 81.29750633 -0.01214539 82.67701721 -0.02453613 C86.75832206 0.03065459 89.01438516 0.21091136 92.5997467 2.31335449 C95.40628853 5.50607955 95.1973285 8.54070967 95.03735352 12.58007812 C95.0412207 13.65999023 95.0412207 13.65999023 95.04516602 14.76171875 C94.94856001 19.96395195 94.94856001 19.96395195 93.2713623 22.22204018 C91.12150269 23.82827466 89.99007842 23.89448488 87.32446289 23.89852905 C86.03741455 23.91121826 86.03741455 23.91121826 84.72436523 23.92416382 C83.78608887 23.91809113 82.8478125 23.91201843 81.88110352 23.90576172 C80.89062012 23.91101868 79.90013672 23.91627563 78.87963867 23.92169189 C75.59871753 23.93491835 72.31827977 23.92614427 69.03735352 23.91601562 C66.76196194 23.91803559 64.48657099 23.92094639 62.21118164 23.92471313 C57.43963464 23.92914008 52.66825597 23.92269338 47.89672852 23.90869141 C41.77293499 23.89159948 35.64953588 23.90143866 29.52575684 23.9194088 C24.82638565 23.93023653 20.12710835 23.92680491 15.42773438 23.91902542 C13.16943312 23.91702062 10.91112341 23.91949244 8.65283203 23.92646408 C5.49952533 23.9340618 2.34686214 23.92249754 -0.80639648 23.90576172 C-1.74467285 23.91183441 -2.68294922 23.9179071 -3.6496582 23.92416382 C-4.50769043 23.91570435 -5.36572266 23.90724487 -6.24975586 23.89852905 C-6.9952771 23.89739798 -7.74079834 23.8962669 -8.50891113 23.89510155 C-11.05290034 23.40352242 -11.9306759 22.58372644 -13.46264648 20.51757812 C-13.78849029 17.77285779 -13.92713151 15.32028435 -13.90014648 12.58007812 C-13.93011719 11.5059668 -13.93011719 11.5059668 -13.96069336 10.41015625 C-13.95775368 7.23823748 -13.77523504 4.99619695 -12.02305603 2.31335449 C-8.1543359 -0.40002243 -4.62080776 -0.04141104 0 0 Z M-12.46264648 4.51757812 C-12.82822766 7.87261288 -12.82822766 7.87261288 -12.65014648 11.64257812 C-12.62307617 12.92390625 -12.59600586 14.20523438 -12.56811523 15.52539062 C-12.53331055 16.5128125 -12.49850586 17.50023437 -12.46264648 18.51757812 C-11.47264648 18.84757812 -10.48264648 19.17757812 -9.46264648 19.51757812 C-9.46264648 20.50757813 -9.46264648 21.49757812 -9.46264648 22.51757812 C0.18745808 22.54090046 9.83755273 22.55859348 19.48767948 22.5693903 C23.97014942 22.57457607 28.45259987 22.58159402 32.93505859 22.59301758 C37.27282842 22.60400134 41.61057967 22.60988725 45.94836235 22.61245537 C47.59108204 22.61428204 49.23380089 22.61784794 50.87651253 22.62330818 C56.09807156 22.63995048 61.31661981 22.61535475 66.53735352 22.51757812 C67.25440838 22.50488262 67.97146324 22.49218712 68.71024704 22.4791069 C70.78118849 22.43068352 72.8484831 22.35198453 74.91796875 22.26147461 C76.10051743 22.21594955 77.2830661 22.1704245 78.50144958 22.1235199 C82.08061814 21.40914692 83.35858844 20.40270901 85.53735352 17.51757812 C85.55197742 15.32404363 85.55197742 15.32404363 84.53735352 13.51757812 C83.54735352 13.02257812 83.54735352 13.02257812 82.53735352 12.51757812 C82.04235352 11.03257812 82.04235352 11.03257812 81.53735352 9.51757812 C80.53575195 9.45699219 79.53415039 9.39640625 78.50219727 9.33398438 C77.15974021 9.24949407 75.81729279 9.16485045 74.47485352 9.08007812 C73.16387695 8.99886719 71.85290039 8.91765625 70.50219727 8.83398438 C66.81238279 8.53952627 63.19925106 8.04569446 59.53735352 7.51757812 C56.83462786 7.36791579 54.250479 7.42402207 51.53735352 7.51757812 C51.20735352 7.84757813 50.87735352 8.17757812 50.53735352 8.51757812 C48.97286969 8.64021201 47.4030258 8.69537335 45.83398438 8.72290039 C44.83302231 8.74284561 43.83206024 8.76279083 42.80076599 8.78334045 C41.71223831 8.80005295 40.62371063 8.81676544 39.50219727 8.83398438 C38.39380997 8.85476547 37.28542267 8.87554657 36.14344788 8.8969574 C32.58731543 8.96257436 29.03110649 9.02139408 25.47485352 9.08007812 C23.07054859 9.1232518 20.66625152 9.1668657 18.26196289 9.2109375 C12.35384167 9.31826804 6.4456436 9.42001143 0.53735352 9.51757812 C0.20735352 8.85757813 -0.12264648 8.19757813 -0.46264648 7.51757812 C-2.73338258 4.83014306 -2.73338258 4.83014306 -5.46264648 2.51757812 C-9.5088715 2.14777799 -9.5088715 2.14777799 -12.46264648 4.51757812 Z" transform="translate(45.462646484375,152.482421875)"/><path fill="#17C2F9" d="M0 0 C0.91099457 -0.00700928 1.82198914 -0.01401855 2.7605896 -0.02124023 C5.77169278 -0.0388444 8.78185602 -0.02718876 11.79296875 -0.01367188 C13.88517436 -0.01636609 15.97737876 -0.02024792 18.06958008 -0.02526855 C22.45438559 -0.03116689 26.83886518 -0.02258967 31.22363281 -0.00390625 C36.84633833 0.01888328 42.46828015 0.00576202 48.09095764 -0.01819611 C52.41123212 -0.03264489 56.73132531 -0.02805227 61.05160522 -0.01768494 C63.12486867 -0.01501512 65.19814854 -0.01829635 67.27139282 -0.02760315 C70.16835171 -0.03775342 73.06407103 -0.02228876 75.9609375 0 C76.81924164 -0.00809692 77.67754578 -0.01619385 78.56185913 -0.02453613 C84.37837547 0.05844159 84.37837547 0.05844159 87.48168945 2.42492676 C89.85107788 5.73315495 90.16414735 7.72197258 90.23046875 11.76757812 C90.25625 12.70085937 90.28203125 13.63414062 90.30859375 14.59570312 C89.91768215 18.07667785 88.59808869 20.43715996 86.98046875 23.51757812 C74.23743205 23.58697344 61.49444003 23.64033605 48.75125313 23.67301464 C42.83458933 23.68869573 36.91805444 23.70997856 31.00146484 23.74389648 C25.29565024 23.7764028 19.58995993 23.79441271 13.88405991 23.80220985 C11.70306312 23.80776909 9.52207342 23.81862431 7.3411293 23.8347683 C4.29513903 23.8564265 1.24966768 23.85954992 -1.79638672 23.8581543 C-2.70556854 23.86894012 -3.61475037 23.87972595 -4.55148315 23.89083862 C-7.05856323 23.87834167 -7.05856323 23.87834167 -11.01953125 23.51757812 C-13.49164978 19.80940033 -13.38684117 16.87498802 -13.39453125 12.58007812 C-13.41902344 11.86400391 -13.44351562 11.14792969 -13.46875 10.41015625 C-13.48650726 7.21680944 -13.34227874 5.00315148 -11.55444336 2.31335449 C-7.79903966 -0.3470396 -4.5002505 -0.0424537 0 0 Z M-12.01953125 5.51757812 C-12.65552998 8.57133633 -12.65552998 8.57133633 -12.51953125 11.95507812 C-12.52984375 13.08816406 -12.54015625 14.22125 -12.55078125 15.38867188 C-11.92199359 19.09204625 -11.01405361 20.30966037 -8.01953125 22.51757812 C-7.02953125 22.51757812 -6.03953125 22.51757812 -5.01953125 22.51757812 C-5.67953125 19.54757813 -6.33953125 16.57757813 -7.01953125 13.51757812 C-3.71953125 13.51757812 -0.41953125 13.51757812 2.98046875 13.51757812 C2.98046875 14.17757812 2.98046875 14.83757812 2.98046875 15.51757812 C0.67046875 15.51757812 -1.63953125 15.51757812 -4.01953125 15.51757812 C-3.68953125 16.50757813 -3.35953125 17.49757812 -3.01953125 18.51757812 C-1.36338468 18.8997658 0.30503899 19.23152914 1.98046875 19.51757812 C2.31046875 19.18757813 2.64046875 18.85757813 2.98046875 18.51757812 C5.4744594 18.39260198 7.94215204 18.33154933 10.43774414 18.31225586 C11.21817581 18.30235626 11.99860748 18.29245667 12.8026886 18.28225708 C15.39446938 18.25055037 17.98626852 18.22584862 20.578125 18.20117188 C22.37032053 18.18061025 24.16251112 18.159614 25.95469666 18.13819885 C30.68112195 18.08289637 35.4075916 18.03352329 40.13409424 17.98535156 C44.9533688 17.93519608 49.77257863 17.87947901 54.59179688 17.82421875 C64.05463226 17.71653723 73.51752374 17.61511461 82.98046875 17.51757812 C82.98046875 16.52757812 82.98046875 15.53757813 82.98046875 14.51757812 C83.64046875 14.51757812 84.30046875 14.51757812 84.98046875 14.51757812 C84.98046875 12.86757812 84.98046875 11.21757812 84.98046875 9.51757812 C57.92046875 9.51757812 30.86046875 9.51757812 2.98046875 9.51757812 C2.98046875 8.85757813 2.98046875 8.19757813 2.98046875 7.51757812 C29.71046875 7.51757812 56.44046875 7.51757812 83.98046875 7.51757812 C84.31046875 6.19757813 84.64046875 4.87757813 84.98046875 3.51757812 C81.70139407 1.87804079 78.06785196 2.36125674 74.46337891 2.35644531 C73.5819371 2.35148041 72.7004953 2.3465155 71.79234314 2.34140015 C68.86806465 2.32676073 65.9438404 2.31997369 63.01953125 2.31445312 C60.99172971 2.3087033 58.9639282 2.30294555 56.93612671 2.29718018 C52.68072251 2.28666523 48.42533724 2.28082574 44.16992188 2.27734375 C38.71322206 2.27185687 33.25677151 2.24782672 27.80014992 2.2193718 C23.61031358 2.20076212 19.42053748 2.19554071 15.2306633 2.19400787 C13.21879081 2.19097722 11.20691948 2.18293487 9.19508743 2.16982269 C6.3819804 2.15279656 3.56948509 2.154634 0.75634766 2.16113281 C-0.07704636 2.15191803 -0.91044037 2.14270325 -1.76908875 2.13320923 C-6.05424628 2.16427107 -9.06262374 2.20165533 -12.01953125 5.51757812 Z" transform="translate(45.01953125,180.482421875)"/><path fill="#86DBF1" d="M0 0 C12.18692967 -0.09261957 24.37377582 -0.16372428 36.56098557 -0.20724869 C42.21981982 -0.22813669 47.87841356 -0.25647682 53.53710938 -0.30175781 C58.99655781 -0.34517177 64.45577468 -0.36912797 69.91538239 -0.37950897 C71.99984636 -0.38690831 74.08429745 -0.40135724 76.16866302 -0.42292023 C79.08505286 -0.45189474 82.00048192 -0.45595846 84.91699219 -0.45410156 C86.21387466 -0.47567322 86.21387466 -0.47567322 87.53695679 -0.49768066 C93.39822561 -0.45721365 93.39822561 -0.45721365 96.50518799 1.90338135 C98.89355784 5.25330143 99.15982455 7.22206799 99.1875 11.3125 C99.20167969 12.25738281 99.21585937 13.20226562 99.23046875 14.17578125 C98.98087592 17.23435107 98.46995572 19.30585403 97 22 C93.19562243 24.80791322 88.67753218 24.28055246 84.1640625 24.25878906 C82.82683136 24.26404602 82.82683136 24.26404602 81.46258545 24.26940918 C78.51664435 24.27820946 75.57094353 24.27238331 72.625 24.265625 C70.57763625 24.26697214 68.53027281 24.26891308 66.48291016 24.27142334 C62.19235183 24.2743723 57.90187678 24.27008426 53.61132812 24.26074219 C48.1098874 24.24934783 42.60864182 24.25590851 37.10720825 24.26788712 C32.8796237 24.27511185 28.65208546 24.27281495 24.42449951 24.26763153 C22.39589413 24.26629673 20.36728456 24.26793681 18.33868408 24.27259064 C15.5043218 24.27766587 12.67027618 24.26993149 9.8359375 24.25878906 C8.99633484 24.26283752 8.15673218 24.26688599 7.29168701 24.27105713 C0.02107593 24.21806847 0.02107593 24.21806847 -3 22 C-4.57255046 18.85489907 -4.22572668 15.51234555 -4.25 12.0625 C-4.270625 11.33353516 -4.29125 10.60457031 -4.3125 9.85351562 C-4.35200945 4.46541455 -4.35200945 4.46541455 -2.484375 1.99609375 C-1.74960937 1.50302734 -1.74960937 1.50302734 -1 1 C-0.67 1.99 -0.34 2.98 0 4 C-0.99 4.33 -1.98 4.66 -3 5 C-2.67 9.95 -2.34 14.9 -2 20 C1.90114251 21.30038084 5.62599521 21.17745308 9.6940918 21.20532227 C10.5821048 21.21522186 11.4701178 21.22512146 12.38504028 21.23532104 C15.32307256 21.26693289 18.26112101 21.29169229 21.19921875 21.31640625 C23.23517784 21.33697604 25.27113267 21.35797252 27.30708313 21.37937927 C32.66806585 21.43459729 38.02908709 21.4840078 43.39013672 21.53222656 C48.85973544 21.58244352 54.32927815 21.63812858 59.79882812 21.69335938 C70.53250425 21.80093767 81.26622898 21.90238341 92 22 C92.33 21.34 92.66 20.68 93 20 C94.485 20.495 94.485 20.495 96 21 C96.08160748 19.10489301 96.13946459 17.20875496 96.1875 15.3125 C96.22230469 14.25675781 96.25710937 13.20101562 96.29296875 12.11328125 C95.96495592 8.62759828 94.9186507 6.87545813 93 4 C93 3.34 93 2.68 93 2 C62.31 1.67 31.62 1.34 0 1 C0 0.67 0 0.34 0 0 Z" transform="translate(36,125)"/><path fill="#7CD5EE" d="M0 0 C0.91099457 -0.00700928 1.82198914 -0.01401855 2.7605896 -0.02124023 C5.77169278 -0.0388444 8.78185602 -0.02718876 11.79296875 -0.01367188 C13.88517436 -0.01636609 15.97737876 -0.02024792 18.06958008 -0.02526855 C22.45438559 -0.03116689 26.83886518 -0.02258967 31.22363281 -0.00390625 C36.84633833 0.01888328 42.46828015 0.00576202 48.09095764 -0.01819611 C52.41123212 -0.03264489 56.73132531 -0.02805227 61.05160522 -0.01768494 C63.12486867 -0.01501512 65.19814854 -0.01829635 67.27139282 -0.02760315 C70.16835171 -0.03775342 73.06407103 -0.02228876 75.9609375 0 C76.81924164 -0.00809692 77.67754578 -0.01619385 78.56185913 -0.02453613 C84.37837547 0.05844159 84.37837547 0.05844159 87.48168945 2.42492676 C89.85107788 5.73315495 90.16414735 7.72197258 90.23046875 11.76757812 C90.25625 12.70085937 90.28203125 13.63414062 90.30859375 14.59570312 C89.91768215 18.07667785 88.59808869 20.43715996 86.98046875 23.51757812 C74.23743205 23.58697344 61.49444003 23.64033605 48.75125313 23.67301464 C42.83458933 23.68869573 36.91805444 23.70997856 31.00146484 23.74389648 C25.29565024 23.7764028 19.58995993 23.79441271 13.88405991 23.80220985 C11.70306312 23.80776909 9.52207342 23.81862431 7.3411293 23.8347683 C4.29513903 23.8564265 1.24966768 23.85954992 -1.79638672 23.8581543 C-2.70556854 23.86894012 -3.61475037 23.87972595 -4.55148315 23.89083862 C-7.05856323 23.87834167 -7.05856323 23.87834167 -11.01953125 23.51757812 C-13.49164978 19.80940033 -13.38684117 16.87498802 -13.39453125 12.58007812 C-13.41902344 11.86400391 -13.44351562 11.14792969 -13.46875 10.41015625 C-13.48650726 7.21680944 -13.34227874 5.00315148 -11.55444336 2.31335449 C-7.79903966 -0.3470396 -4.5002505 -0.0424537 0 0 Z M-12.01953125 5.51757812 C-12.65552998 8.57133633 -12.65552998 8.57133633 -12.51953125 11.95507812 C-12.52984375 13.08816406 -12.54015625 14.22125 -12.55078125 15.38867188 C-11.89104006 19.27435346 -11.18987311 20.20435957 -8.01953125 22.51757812 C-4.98138791 22.89668189 -2.31064251 23.0343801 0.72460938 22.98754883 C1.60634323 22.98973923 2.48807709 22.99192963 3.39653015 22.9941864 C6.31030829 22.99649735 9.22307534 22.97024138 12.13671875 22.94335938 C14.16165852 22.93843561 16.18660284 22.93513664 18.21154785 22.93339539 C22.45514463 22.92575384 26.69840433 22.90518892 30.94189453 22.87426758 C36.38276428 22.83469281 41.82341467 22.81665857 47.26441193 22.8069582 C52.45104395 22.79698433 57.63762242 22.77709726 62.82421875 22.75585938 C63.81513016 22.75246363 64.80604156 22.74906788 65.82698059 22.74556923 C68.63016118 22.73399234 71.43320332 22.71547061 74.23632812 22.69458008 C75.06658005 22.69189117 75.89683197 22.68920227 76.75224304 22.68643188 C81.96524568 22.70666568 81.96524568 22.70666568 86.98046875 21.51757812 C88.04971412 18.30984201 88.14731831 15.88772995 88.16796875 12.51757812 C88.18214844 11.46570313 88.19632812 10.41382813 88.2109375 9.33007812 C88.19227801 6.30999125 88.19227801 6.30999125 85.98046875 3.51757812 C82.09326322 2.22184295 78.40183357 2.36187741 74.34985352 2.35644531 C73.02747177 2.34899796 73.02747177 2.34899796 71.67837524 2.34140015 C68.75953392 2.32678446 65.84074691 2.31997821 62.921875 2.31445312 C60.89550271 2.30870206 58.86913043 2.30294432 56.84275818 2.29718018 C52.59333034 2.28667249 48.34392142 2.28082801 44.09448242 2.27734375 C38.64565838 2.27185344 33.19708353 2.24781294 27.74833775 2.2193718 C23.56279261 2.20076393 19.37730779 2.19554085 15.19172478 2.19400787 C13.18264335 2.19097764 11.17356308 2.18293667 9.16452217 2.16982269 C6.35631349 2.15279772 3.54871763 2.15463352 0.74047852 2.16113281 C-0.09134445 2.15191803 -0.92316742 2.14270325 -1.78019714 2.13320923 C-6.06252706 2.16430907 -9.06407552 2.20549593 -12.01953125 5.51757812 Z" transform="translate(45.01953125,180.482421875)"/><path fill="#04C3F7" d="M0 0 C6.37936593 -0.36109618 6.37936593 -0.36109618 8.71875 1 C10.75518944 4.17883229 10.31160535 7.54389423 10.1875 11.1875 C10.16719727 12.31188477 10.16719727 12.31188477 10.14648438 13.45898438 C10.11118539 15.30629767 10.05737917 17.15324066 10 19 C7.03 19.33 4.06 19.66 1 20 C1 18.35 1 16.7 1 15 C0.5059668 15.32597168 0.01193359 15.65194336 -0.49707031 15.98779297 C-3.99168389 17.40104579 -7.3390919 17.24669114 -11.046875 17.1953125 C-12.20367767 17.19106766 -12.20367767 17.19106766 -13.3838501 17.18673706 C-15.83939332 17.17557013 -18.2945676 17.15047229 -20.75 17.125 C-22.41796347 17.11496568 -24.08593268 17.10584061 -25.75390625 17.09765625 C-29.83607897 17.07564225 -33.917977 17.04113667 -38 17 C-38 16.34 -38 15.68 -38 15 C-38.99 14.67 -39.98 14.34 -41 14 C-41 13.01 -41 12.02 -41 11 C-28.46 11 -15.92 11 -3 11 C-3 10.34 -3 9.68 -3 9 C-2.34 9 -1.68 9 -1 9 C-1.20625 8.443125 -1.4125 7.88625 -1.625 7.3125 C-2.10695211 4.340462 -1.26565028 2.68020059 0 0 Z M-35 13 C-35 13.66 -35 14.32 -35 15 C-31.58403845 16.13865385 -29.17537791 16.02524163 -25.58203125 15.87890625 C-24.32841797 15.83056641 -23.07480469 15.78222656 -21.78320312 15.73242188 C-20.47287109 15.67634766 -19.16253906 15.62027344 -17.8125 15.5625 C-16.4772337 15.50925765 -15.14194728 15.4565174 -13.80664062 15.40429688 C-10.53752856 15.27447654 -7.26871081 15.13950464 -4 15 C-4 14.34 -4 13.68 -4 13 C-14.23 13 -24.46 13 -35 13 Z" transform="translate(83,211)"/><path fill="#08C3F7" d="M0 0 C0.86066574 0.02024734 1.72133148 0.04049469 2.608078 0.06135559 C3.53316666 0.09871323 4.45825531 0.13607086 5.41137695 0.17456055 C6.83665459 0.21422188 6.83665459 0.21422188 8.29072571 0.25468445 C11.32767162 0.34250453 14.36342946 0.45163437 17.3996582 0.5612793 C19.45755824 0.6245321 21.5155014 0.68639835 23.57348633 0.74682617 C28.62035157 0.89805487 33.66625414 1.0683992 38.7121582 1.2487793 C39.2071582 3.2287793 39.2071582 3.2287793 39.7121582 5.2487793 C28.4921582 5.2487793 17.2721582 5.2487793 5.7121582 5.2487793 C5.7121582 6.5687793 5.7121582 7.8887793 5.7121582 9.2487793 C3.0721582 9.2487793 0.4321582 9.2487793 -2.2878418 9.2487793 C-2.2878418 10.5687793 -2.2878418 11.8887793 -2.2878418 13.2487793 C-2.9478418 13.2487793 -3.6078418 13.2487793 -4.2878418 13.2487793 C-4.2878418 13.9087793 -4.2878418 14.5687793 -4.2878418 15.2487793 C-2.6378418 15.2487793 -0.9878418 15.2487793 0.7121582 15.2487793 C0.3821582 16.8987793 0.0521582 18.5487793 -0.2878418 20.2487793 C-3.24959303 19.63600318 -4.66842962 18.99505408 -7.2878418 17.2487793 C-7.6862793 14.09643555 -7.6862793 14.09643555 -7.6628418 10.3112793 C-7.67057617 9.06475586 -7.67831055 7.81823242 -7.6862793 6.53393555 C-7.2878418 3.2487793 -7.2878418 3.2487793 -6.03092957 1.55900574 C-3.83525012 -0.0914202 -2.72371116 -0.08786165 0 0 Z" transform="translate(40.287841796875,210.751220703125)"/><path fill="#0CC3F6" d="M0 0 C28.71 0 57.42 0 87 0 C87.495 1.485 87.495 1.485 88 3 C77.26451606 3.04634725 66.52905594 3.0818814 55.79349232 3.10362434 C50.80849994 3.11406003 45.82357602 3.12821539 40.83862305 3.15087891 C36.02757278 3.17261483 31.21658836 3.18457025 26.40549278 3.18975449 C24.5702886 3.19344888 22.73508802 3.20066309 20.89991188 3.21146011 C18.32878464 3.22598494 15.75792927 3.22797752 13.18676758 3.22705078 C12.42863266 3.23424133 11.67049774 3.24143188 10.88938904 3.24884033 C6.81454791 3.23295503 3.6667781 2.81798266 0 1 C0 0.67 0 0.34 0 0 Z" transform="translate(43,155)"/><path fill="#98DDF8" d="M0 0 C1.63673424 -0.00922989 1.63673424 -0.00922989 3.30653381 -0.01864624 C5.06603615 0.00291031 5.06603615 0.00291031 6.86108398 0.02490234 C8.06909164 0.02581879 9.2770993 0.02673523 10.52171326 0.02767944 C13.07457409 0.03372016 15.62742767 0.04948002 18.18017578 0.07421875 C22.09556072 0.11073151 26.0099997 0.11523809 29.92553711 0.11474609 C32.40406094 0.12457678 34.88257835 0.13623356 37.36108398 0.14990234 C39.12362267 0.15324081 39.12362267 0.15324081 40.92176819 0.15664673 C42.55377419 0.17578629 42.55377419 0.17578629 44.21875 0.1953125 C45.65626366 0.20674789 45.65626366 0.20674789 47.12281799 0.21841431 C49.54467773 0.48583984 49.54467773 0.48583984 52.54467773 2.48583984 C53.69915949 5.94928511 53.74872865 8.77421711 53.79467773 12.42333984 C53.82045898 13.64923828 53.84624023 14.87513672 53.87280273 16.13818359 C53.5135879 19.80303019 53.11230606 20.93143117 50.54467773 23.48583984 C47.99546814 23.98704529 47.99546814 23.98704529 44.91162109 23.98754883 C43.75709946 23.99692978 42.60257782 24.00631073 41.41307068 24.01597595 C40.16614944 24.00474197 38.91922821 23.993508 37.63452148 23.98193359 C36.35613907 23.98338882 35.07775665 23.98484406 33.76063538 23.98634338 C31.05586217 23.98468185 28.35249011 23.97516966 25.64794922 23.95239258 C22.17845713 23.92397833 18.70984429 23.9267523 15.24028683 23.93948269 C11.93414137 23.94810094 8.62813931 23.93300008 5.32202148 23.91943359 C3.44860329 23.92383705 3.44860329 23.92383705 1.53733826 23.92832947 C0.38596878 23.91564529 -0.7654007 23.90296112 -1.95166016 23.88989258 C-2.96853409 23.88448959 -3.98540802 23.87908661 -5.03309631 23.8735199 C-6.23209816 23.68161827 -6.23209816 23.68161827 -7.45532227 23.48583984 C-9.92744079 19.77766205 -9.82263219 16.84324974 -9.83032227 12.54833984 C-9.85481445 11.83226562 -9.87930664 11.11619141 -9.90454102 10.37841797 C-9.92309863 7.04113989 -9.82522895 4.96934867 -7.76747131 2.27963257 C-4.93841757 0.08481903 -3.54759966 -0.01054154 0 0 Z M-7.25634766 3.80697632 C-9.21424402 6.54851961 -8.88938164 9.18283817 -8.89282227 12.48583984 C-8.9121582 13.72333984 -8.93149414 14.96083984 -8.95141602 16.23583984 C-8.78625761 19.49794082 -8.78625761 19.49794082 -6.74034119 21.16668701 C-4.05205343 22.71864895 -2.48647157 22.85504645 0.60107422 22.84228516 C1.60569199 22.84528625 2.61030975 22.84828735 3.64537048 22.85137939 C4.72460281 22.83903259 5.80383514 22.82668579 6.91577148 22.81396484 C8.03025162 22.81209167 9.14473175 22.81021851 10.29298401 22.80828857 C12.64912915 22.80156825 15.00526314 22.7876542 17.36132812 22.76708984 C20.96486811 22.73598924 24.56797007 22.72612289 28.17163086 22.72021484 C30.46134972 22.71104223 32.75106414 22.70066564 35.04077148 22.68896484 C36.11797958 22.68471497 37.19518768 22.68046509 38.30503845 22.67608643 C39.81669334 22.66167511 39.81669334 22.66167511 41.35888672 22.64697266 C42.24172836 22.64014465 43.12457001 22.63331665 44.03416443 22.62628174 C46.61927277 22.48166688 49.02156007 22.05395226 51.54467773 21.48583984 C51.62560903 18.88105102 51.68513207 16.27877331 51.73217773 13.67333984 C51.75731445 12.93535156 51.78245117 12.19736328 51.80834961 11.43701172 C51.94969025 7.37868737 51.94969025 7.37868737 50.35449219 3.77304077 C47.90712804 2.03239305 46.28586746 2.10522234 43.29467773 2.09765625 C42.2234668 2.08819977 41.15225586 2.07874329 40.04858398 2.06900024 C38.89229492 2.07507294 37.73600586 2.08114563 36.54467773 2.08740234 C34.76383789 2.08309708 34.76383789 2.08309708 32.94702148 2.07870483 C30.43529789 2.07666208 27.92355846 2.08220662 25.41186523 2.09472656 C21.55994202 2.11077624 17.70906819 2.09488397 13.85717773 2.07568359 C11.41967541 2.07766599 8.98217374 2.08150958 6.54467773 2.08740234 C4.81024414 2.0782933 4.81024414 2.0782933 3.04077148 2.06900024 C1.96956055 2.07845673 0.89834961 2.08791321 -0.20532227 2.09765625 C-1.62071289 2.10123642 -1.62071289 2.10123642 -3.06469727 2.10488892 C-5.49763248 2.30578345 -5.49763248 2.30578345 -7.25634766 3.80697632 Z" transform="translate(41.455322265625,208.51416015625)"/><path fill="#0BC3F5" d="M0 0 C27.06 0 54.12 0 82 0 C81.34 0.99 80.68 1.98 80 3 C77.33769967 3.28640158 74.90883447 3.37839379 72.24560547 3.34057617 C71.44552063 3.34101425 70.64543579 3.34145233 69.82110596 3.34190369 C67.16955382 3.33980923 64.51862953 3.31644771 61.8671875 3.29296875 C60.03158921 3.28737512 58.19598645 3.28310392 56.36038208 3.28010559 C51.52365809 3.26863844 46.68720337 3.23915527 41.85058594 3.20599365 C36.91735477 3.17533298 31.98408019 3.16160883 27.05078125 3.14648438 C17.36706904 3.11428729 7.68355689 3.06306845 -2 3 C-1.34 2.67 -0.68 2.34 0 2 C0 1.34 0 0.68 0 0 Z" transform="translate(48,200)"/><path fill="#92DCF0" d="M0 0 C0.96107666 -0.0049649 1.92215332 -0.00992981 2.91235352 -0.01504517 C6.1011628 -0.0296865 9.28992236 -0.03647151 12.47875977 -0.04199219 C14.68831891 -0.04774131 16.89787803 -0.05349907 19.10743713 -0.05926514 C23.74366489 -0.06978026 28.37987527 -0.07561981 33.01611328 -0.07910156 C38.96614373 -0.08459221 44.91594602 -0.10863037 50.86590481 -0.13707352 C55.43057433 -0.15566559 59.99518846 -0.16090363 64.55989265 -0.16243744 C66.75401115 -0.16547146 68.9481285 -0.17352503 71.14221001 -0.18662262 C74.20696435 -0.20361395 77.27115561 -0.20181994 80.3359375 -0.1953125 C81.70363029 -0.20913467 81.70363029 -0.20913467 83.09895325 -0.22323608 C83.93318817 -0.21766693 84.7674231 -0.21209778 85.62693787 -0.20635986 C86.35163489 -0.20782642 87.07633192 -0.20929298 87.82298946 -0.21080399 C90.25807384 0.26346349 91.16191337 1.29522771 92.73266602 3.16113281 C91.46146408 3.1589122 90.19026215 3.15669159 88.88053894 3.15440369 C76.91724817 3.13415693 64.95396085 3.11915325 52.99065685 3.10932064 C46.83979263 3.10409573 40.68894221 3.09700514 34.53808594 3.08569336 C28.60534339 3.07485063 22.67261413 3.06885302 16.73986244 3.06625557 C14.47318627 3.06440383 12.20651085 3.060788 9.93984032 3.05540276 C6.77205186 3.04817399 3.60431878 3.04714266 0.43652344 3.04760742 C-0.50646606 3.04401215 -1.44945557 3.04041687 -2.42102051 3.03671265 C-3.28338821 3.03808731 -4.14575592 3.03946198 -5.03425598 3.0408783 C-5.78367368 3.0399565 -6.53309137 3.03903471 -7.3052187 3.03808498 C-9.48249982 3.09050434 -9.48249982 3.09050434 -12.26733398 4.16113281 C-11.93733398 3.17113281 -11.60733398 2.18113281 -11.26733398 1.16113281 C-7.80833546 -0.56836645 -3.80794168 0.00465819 0 0 Z" transform="translate(45.267333984375,152.8388671875)"/><path fill="#182D41" d="M0 0 C1.32 0.33 2.64 0.66 4 1 C4 1.66 4 2.32 4 3 C4.66 3 5.32 3 6 3 C6.75 4.625 6.75 4.625 7 7 C4.86094763 10.80275977 2.48189634 14.33737339 -1 17 C-6.46273927 17.99322532 -10.3846071 15.62397972 -15 13 C-15 12.67 -15 12.34 -15 12 C-13.35 12 -11.7 12 -10 12 C-9.34 10.35 -8.68 8.7 -8 7 C-7.34 7 -6.68 7 -6 7 C-5.34 5.68 -4.68 4.36 -4 3 C-2.68 3 -1.36 3 0 3 C0 2.01 0 1.02 0 0 Z" transform="translate(439,145)"/><path fill="#5B6977" d="M0 0 C2.0625 0.4375 2.0625 0.4375 4 1 C3.01 1.33 2.02 1.66 1 2 C1.01474869 3.01619919 1.02949738 4.03239838 1.04469299 5.07939148 C1.18301646 14.65797393 1.31573213 24.23661986 1.4429636 33.81535625 C1.50855391 38.73982315 1.57611686 43.66424648 1.64819336 48.58862305 C1.71768344 53.34125694 1.78198477 58.09393535 1.84269524 62.84668922 C1.8667634 64.65958007 1.89269837 66.47244713 1.92053413 68.28528404 C1.95921399 70.82516132 1.99124464 73.36504225 2.02172852 75.9050293 C2.03467453 76.65381348 2.04762054 77.40259766 2.06095886 78.17407227 C2.09880706 81.9206375 1.91049039 85.35895785 1 89 C0.34 88.67 -0.32 88.34 -1 88 C-1.02312255 76.6738837 -1.04091464 65.34777297 -1.05181217 54.02163792 C-1.05704119 48.76303336 -1.06413918 43.5044449 -1.07543945 38.24584961 C-1.08626766 33.17546873 -1.09227669 28.10510338 -1.09487724 23.03471184 C-1.09673161 21.09573052 -1.10035245 19.15675009 -1.10573006 17.21777534 C-1.1129396 14.5117824 -1.11399098 11.80585444 -1.11352539 9.09985352 C-1.11712067 8.28993454 -1.12071594 7.48001556 -1.12442017 6.64555359 C-1.11405216 1.11405216 -1.11405216 1.11405216 0 0 Z" transform="translate(180,142)"/><path fill="#59C1E7" d="M0 0 C0.99 0.495 0.99 0.495 2 1 C2.0809313 3.60478883 2.14045434 6.20706653 2.1875 8.8125 C2.21263672 9.55048828 2.23777344 10.28847656 2.26367188 11.04882812 C2.33818993 16.53832508 2.33818993 16.53832508 0.74499512 18.71325111 C-1.41215844 20.30392315 -2.55007712 20.37691101 -5.21289062 20.38095093 C-6.49993896 20.39364014 -6.49993896 20.39364014 -7.81298828 20.40658569 C-8.75126465 20.400513 -9.68954102 20.39444031 -10.65625 20.38818359 C-11.6467334 20.39344055 -12.6372168 20.39869751 -13.65771484 20.40411377 C-16.93863599 20.41734022 -20.21907374 20.40856614 -23.5 20.3984375 C-25.77539158 20.40045747 -28.05078252 20.40336826 -30.32617188 20.40713501 C-35.09771888 20.41156196 -39.86909754 20.40511526 -44.640625 20.39111328 C-50.76441853 20.37402135 -56.88781763 20.38386053 -63.01159668 20.40183067 C-67.71096787 20.41265841 -72.41024516 20.40922678 -77.10961914 20.4014473 C-79.36792039 20.3994425 -81.6262301 20.40191432 -83.88452148 20.40888596 C-87.03782818 20.41648368 -90.19049137 20.40491941 -93.34375 20.38818359 C-94.28202637 20.39425629 -95.22030273 20.40032898 -96.18701172 20.40658569 C-97.04504395 20.39812622 -97.90307617 20.38966675 -98.78710938 20.38095093 C-99.53263062 20.37981985 -100.27815186 20.37868877 -101.04626465 20.37752342 C-103.59434557 19.88515365 -104.47659137 19.07965847 -106 17 C-106.21714241 14.18872957 -106.28284276 11.6116655 -106.1875 8.8125 C-106.17396484 8.06291016 -106.16042969 7.31332031 -106.14648438 6.54101562 C-106.11118539 4.69370233 -106.05737917 2.84675934 -106 1 C-105.67 1 -105.34 1 -105 1 C-104.95101562 1.99902344 -104.90203125 2.99804688 -104.8515625 4.02734375 C-104.77679688 5.31769531 -104.70203125 6.60804688 -104.625 7.9375 C-104.55539063 9.22527344 -104.48578125 10.51304687 -104.4140625 11.83984375 C-104.27742188 12.88269531 -104.14078125 13.92554688 -104 15 C-103.34 15.33 -102.68 15.66 -102 16 C-102 16.99 -102 17.98 -102 19 C-89.29141562 18.89252883 -76.58288845 18.77990147 -63.87440872 18.66066074 C-57.97358315 18.60545735 -52.07275261 18.55204138 -46.171875 18.50268555 C-40.47898776 18.45500402 -34.78616086 18.40265969 -29.09334564 18.34705925 C-26.91961924 18.3266529 -24.74587629 18.30793698 -22.57212067 18.29092598 C-19.53141799 18.26684404 -16.49082921 18.23679443 -13.45019531 18.20532227 C-12.54820404 18.1995668 -11.64621277 18.19381134 -10.71688843 18.18788147 C-9.4717598 18.17319824 -9.4717598 18.17319824 -8.20147705 18.15821838 C-7.48247852 18.15176583 -6.76348 18.14531328 -6.02269363 18.1386652 C-3.64224266 18.03495504 -3.64224266 18.03495504 0 17 C0 11.39 0 5.78 0 0 Z" transform="translate(138,156)"/><path fill="#02C3F8" d="M0 0 C0.99 0 1.98 0 3 0 C3.0825 0.61875 3.165 1.2375 3.25 1.875 C3.79812229 4.12415199 3.79812229 4.12415199 5.74884033 5.11288452 C8.24190707 6.09532843 10.09488431 6.27572394 12.76855469 6.31884766 C14.17956451 6.34865219 14.17956451 6.34865219 15.61907959 6.37905884 C17.13021332 6.39638565 17.13021332 6.39638565 18.671875 6.4140625 C20.22820648 6.44311172 20.22820648 6.44311172 21.815979 6.4727478 C25.12723592 6.53248842 28.43852771 6.5789073 31.75 6.625 C33.99610884 6.66318482 36.24220312 6.70223685 38.48828125 6.7421875 C43.99205815 6.83818542 49.49592288 6.92324916 55 7 C55 7.66 55 8.32 55 9 C47.82856131 9.12682581 40.65741202 9.21436241 33.48510742 9.2746582 C31.04554436 9.29979496 28.60605655 9.33390946 26.16674805 9.37719727 C22.65915354 9.43788229 19.1525551 9.466219 15.64453125 9.48828125 C14.55477493 9.51408768 13.46501862 9.5398941 12.34223938 9.56648254 C3.89691125 9.56960734 3.89691125 9.56960734 0.76049805 6.61401367 C-1 4 -1 4 -0.8125 1.6875 C-0.4103125 0.8521875 -0.4103125 0.8521875 0 0 Z" transform="translate(41,159)"/><path fill="#92D4EA" d="M0 0 C12.18692967 -0.09261957 24.37377582 -0.16372428 36.56098557 -0.20724869 C42.21981982 -0.22813669 47.87841356 -0.25647682 53.53710938 -0.30175781 C58.99655781 -0.34517177 64.45577468 -0.36912797 69.91538239 -0.37950897 C71.99984636 -0.38690831 74.08429745 -0.40135724 76.16866302 -0.42292023 C79.08505286 -0.45189474 82.00048192 -0.45595846 84.91699219 -0.45410156 C86.21387466 -0.47567322 86.21387466 -0.47567322 87.53695679 -0.49768066 C93.39822561 -0.45721365 93.39822561 -0.45721365 96.50518799 1.90338135 C98.98370872 5.37974678 99.11187168 7.37903517 99.0625 11.625 C99.05347656 12.62789062 99.04445313 13.63078125 99.03515625 14.6640625 C99.02355469 15.43492187 99.01195312 16.20578125 99 17 C98.67 17 98.34 17 98 17 C97.93941406 16.40832031 97.87882812 15.81664062 97.81640625 15.20703125 C97.73261719 14.41683594 97.64882812 13.62664062 97.5625 12.8125 C97.48128906 12.03519531 97.40007812 11.25789062 97.31640625 10.45703125 C96.99223678 7.93971527 96.50873664 5.48574876 96 3 C85.49050925 1.87395949 75.0091888 1.78242008 64.453125 1.68359375 C62.5869709 1.66297953 60.72082099 1.64198204 58.85467529 1.62062073 C53.98209062 1.56586073 49.10946709 1.51625154 44.23681641 1.46777344 C39.24898896 1.41721838 34.26121677 1.36171121 29.2734375 1.30664062 C19.5156724 1.19962405 9.75785896 1.09805762 0 1 C0 0.67 0 0.34 0 0 Z" transform="translate(36,125)"/><path fill="#3FC0EE" d="M0 0 C28.05 0 56.1 0 85 0 C85 0.33 85 0.66 85 1 C57.61 1 30.22 1 2 1 C2 2.65 2 4.3 2 6 C0.02 6.99 0.02 6.99 -2 8 C-2 4 -2 4 0 2 C0 1.34 0 0.68 0 0 Z" transform="translate(35,126)"/><path fill="#60C5E7" d="M0 0 C7.79621694 -0.02528819 15.59242336 -0.04284068 23.38867188 -0.05493164 C26.04264725 -0.05997042 28.69661984 -0.06680151 31.35058594 -0.07543945 C35.15821011 -0.08752489 38.96579769 -0.09323275 42.7734375 -0.09765625 C43.96617279 -0.10281754 45.15890808 -0.10797882 46.38778687 -0.11329651 C47.48877716 -0.11337204 48.58976746 -0.11344757 49.72412109 -0.11352539 C51.1830629 -0.11685631 51.1830629 -0.11685631 52.67147827 -0.12025452 C55 0 55 0 57 1 C58.16903873 4.50711619 58.16839619 7.36782386 58.1875 11.0625 C58.20167969 12.31160156 58.21585938 13.56070313 58.23046875 14.84765625 C58 18 58 18 56 20 C55.95101562 18.86820313 55.90203125 17.73640625 55.8515625 16.5703125 C55.77653486 15.08851661 55.70098703 13.606747 55.625 12.125 C55.5940625 11.37863281 55.563125 10.63226563 55.53125 9.86328125 C55.44356169 5.46526812 55.44356169 5.46526812 53 2 C50.65590429 1.66883262 50.65590429 1.66883262 47.90771484 1.68115234 C46.84676605 1.66128265 45.78581726 1.64141296 44.69271851 1.62094116 C42.96923691 1.60361435 42.96923691 1.60361435 41.2109375 1.5859375 C40.03737701 1.56657135 38.86381653 1.5472052 37.6546936 1.5272522 C33.89487039 1.46732336 30.13501677 1.42101754 26.375 1.375 C23.83071558 1.3368325 21.28644425 1.29778151 18.7421875 1.2578125 C12.49490759 1.16161095 6.24754928 1.07660262 0 1 C0 0.67 0 0.34 0 0 Z" transform="translate(37,210)"/><path fill="#24C0F5" d="M0 0 C0 1.65 0 3.3 0 5 C-11.88 5 -23.76 5 -36 5 C-36 4.34 -36 3.68 -36 3 C-35.07662842 2.98018066 -34.15325684 2.96036133 -33.2019043 2.93994141 C-29.77438826 2.86182261 -26.34731202 2.77513003 -22.92016602 2.68261719 C-21.43717788 2.64434653 -19.95409752 2.60949022 -18.47094727 2.578125 C-16.33836928 2.532432 -14.20642509 2.47444662 -12.07421875 2.4140625 C-10.79119873 2.3826416 -9.50817871 2.3512207 -8.1862793 2.31884766 C-4.85359598 1.9853495 -3.1698304 0 0 0 Z" transform="translate(84,226)"/><path fill="#213246" d="M0 0 C0.33 0.66 0.66 1.32 1 2 C3.02463255 2.65213292 3.02463255 2.65213292 5 3 C5 3.33 5 3.66 5 4 C9.67461851 4.32613618 12.16674383 3.70582788 16 1 C16 1.66 16 2.32 16 3 C17.32 2.34 18.64 1.68 20 1 C20.99 1.66 21.98 2.32 23 3 C16.42080058 6.51910667 10.4411678 7.78538265 3 7 C0.72265625 5.98828125 0.72265625 5.98828125 -1 5 C-0.67 3.35 -0.34 1.7 0 0 Z" transform="translate(209,200)"/><path fill="#374859" d="M0 0 C0 2.33333333 0 4.66666667 0 7 C0.93283296 9.20067421 0.93283296 9.20067421 2 11 C-0.35953094 13.35953094 -1.77895617 13.49141413 -5 14 C-7 11 -7 11 -7.5625 8.6875 C-6.66808292 4.41417394 -3.39192567 2.51798564 0 0 Z" transform="translate(396,184)"/><path fill="#374758" d="M0 0 C3.31248187 -0.02888146 6.62493167 -0.04675799 9.9375 -0.0625 C10.88302734 -0.07087891 11.82855469 -0.07925781 12.80273438 -0.08789062 C14.15141602 -0.09272461 14.15141602 -0.09272461 15.52734375 -0.09765625 C16.77632446 -0.10551147 16.77632446 -0.10551147 18.05053711 -0.11352539 C20 0 20 0 21 1 C20.84550243 6.53814367 19.67670682 11.74631862 18 17 C17.67 17 17.34 17 17 17 C16.77668801 15.41870971 16.57195356 13.83478911 16.375 12.25 C16.20097656 10.92742187 16.20097656 10.92742187 16.0234375 9.578125 C15.9975878 6.7346582 16.54778091 5.40295246 18 3 C18.33 2.34 18.66 1.68 19 1 C18.33613281 1.16371094 17.67226563 1.32742187 16.98828125 1.49609375 C13.37116663 2.10603857 9.84139292 2.10795513 6.1875 2.0625 C5.49462891 2.05798828 4.80175781 2.05347656 4.08789062 2.04882812 C2.39188932 2.03713156 0.69593297 2.01919924 -1 2 C-0.67 1.34 -0.34 0.68 0 0 Z" transform="translate(370,141)"/><path fill="#22C2F5" d="M0 0 C1.65 0 3.3 0 5 0 C5.13277344 0.56589844 5.26554687 1.13179687 5.40234375 1.71484375 C5.57894531 2.44832031 5.75554687 3.18179688 5.9375 3.9375 C6.19853516 5.03384766 6.19853516 5.03384766 6.46484375 6.15234375 C6.83887569 7.99969898 6.83887569 7.99969898 8 9 C8.04092937 11.33297433 8.04241723 13.66705225 8 16 C6.35 16 4.7 16 3 16 C3.33 15.34 3.66 14.68 4 14 C4.99 14.33 5.98 14.66 7 15 C6.67 13.68 6.34 12.36 6 11 C5.01 11.33 4.02 11.66 3 12 C3 10.02 3 8.04 3 6 C1.68 6 0.36 6 -1 6 C-0.67 4.02 -0.34 2.04 0 0 Z" transform="translate(85,214)"/><path fill="#405160" d="M0 0 C-4.3384148 4.84940592 -8.70485656 5.95339364 -15 7 C-19.34826058 7.22117776 -23.65123394 7.18667199 -28 7 C-28 6.67 -28 6.34 -28 6 C-24.04 6 -20.08 6 -16 6 C-16 5.01 -16 4.02 -16 3 C-14.27318563 2.49193553 -12.54342021 1.99389533 -10.8125 1.5 C-9.36810547 1.08234375 -9.36810547 1.08234375 -7.89453125 0.65625 C-5.14654124 0.03322392 -2.80401584 -0.12302812 0 0 Z" transform="translate(440,200)"/><path fill="#27C0F5" d="M0 0 C3 3 3 3 3.328125 5.8125 C3.30234375 6.864375 3.2765625 7.91625 3.25 9 C3.23453125 10.051875 3.2190625 11.10375 3.203125 12.1875 C3 15 3 15 2 18 C1.01 17.67 0.02 17.34 -1 17 C-0.34 16.01 0.32 15.02 1 14 C0.01 14 -0.98 14 -2 14 C-2 13.01 -2 12.02 -2 11 C-1.34 11 -0.68 11 0 11 C0 7.37 0 3.74 0 0 Z" transform="translate(130,184)"/><path fill="#7CD2ED" d="M0 0 C0.66 0.33 1.32 0.66 2 1 C2.0809313 3.60478883 2.14045434 6.20706653 2.1875 8.8125 C2.22520508 9.91948242 2.22520508 9.91948242 2.26367188 11.04882812 C2.33655455 16.4178516 2.33655455 16.4178516 0.84375 19 C-1.74999171 20.40677516 -3.75703617 20.29092814 -6.6875 20.1875 C-8.17830078 20.14689453 -8.17830078 20.14689453 -9.69921875 20.10546875 C-10.45847656 20.07066406 -11.21773438 20.03585938 -12 20 C-12 19.67 -12 19.34 -12 19 C-9.0703125 18.65820312 -9.0703125 18.65820312 -6.140625 18.31640625 C-3.67008077 17.98698863 -3.67008077 17.98698863 0 17 C0 11.39 0 5.78 0 0 Z" transform="translate(138,156)"/><path fill="#08C3F5" d="M0 0 C1.32 0.33 2.64 0.66 4 1 C3.67 3.64 3.34 6.28 3 9 C2.34 9 1.68 9 1 9 C1 9.66 1 10.32 1 11 C0.01 11 -0.98 11 -2 11 C-2.33 10.01 -2.66 9.02 -3 8 C-3.99 7.67 -4.98 7.34 -6 7 C-6 6.34 -6 5.68 -6 5 C-4.02 5 -2.04 5 0 5 C0 3.35 0 1.7 0 0 Z" transform="translate(134,155)"/><path fill="#1EC1F4" d="M0 0 C0.66 0 1.32 0 2 0 C1.67 3.3 1.34 6.6 1 10 C1.66 10 2.32 10 3 10 C3 10.66 3 11.32 3 12 C4.65 12 6.3 12 8 12 C7.67 13.65 7.34 15.3 7 17 C4.03824877 16.38722388 2.61941217 15.74627478 0 14 C-0.29296875 10.7421875 -0.29296875 10.7421875 -0.1875 6.875 C-0.16042969 5.59367188 -0.13335937 4.31234375 -0.10546875 2.9921875 C-0.07066406 2.00476563 -0.03585938 1.01734375 0 0 Z" transform="translate(33,214)"/><path fill="#27C0F8" d="M0 0 C0 0.66 0 1.32 0 2 C-2.31 2 -4.62 2 -7 2 C-6.34 2.598125 -5.68 3.19625 -5 3.8125 C-3 6 -3 6 -3 9 C-4.65 9 -6.3 9 -8 9 C-9.49821059 5.62902617 -10 3.79557881 -10 0 C-6.7169902 -1.6415049 -3.57454967 -0.51888624 0 0 Z" transform="translate(48,194)"/><path fill="#2F4253" d="M0 0 C1.32 0 2.64 0 4 0 C4 1.65 4 3.3 4 5 C3.34 5 2.68 5 2 5 C2.37125 5.53625 2.7425 6.0725 3.125 6.625 C4.34857383 9.94612897 3.30463011 11.81090417 2 15 C0.49365293 12.41769073 -0.43832481 9.79944564 -1.25 6.9375 C-1.53617187 5.93009766 -1.53617187 5.93009766 -1.828125 4.90234375 C-2 3 -2 3 0 0 Z" transform="translate(323,141)"/><path fill="#01C3F8" d="M0 0 C5.94 0 11.88 0 18 0 C19 4 19 4 18 6 C17.01 5.67 16.02 5.34 15 5 C15 4.01 15 3.02 15 2 C10.38 2 5.76 2 1 2 C0.67 1.34 0.34 0.68 0 0 Z" transform="translate(112,166)"/><path fill="#06C4F7" d="M0 0 C0.99 0.33 1.98 0.66 3 1 C3.33 4.3 3.66 7.6 4 11 C-1.04347826 9.73913043 -1.04347826 9.73913043 -3 7 C-3.375 4.4375 -3.375 4.4375 -3 2 C-2.01 1.34 -1.02 0.68 0 0 Z" transform="translate(36,192)"/><path fill="#455462" d="M0 0 C1.98 0.99 1.98 0.99 4 2 C3.01 3.32 2.02 4.64 1 6 C6.28 6.99 11.56 7.98 17 9 C17 9.33 17 9.66 17 10 C9.08 10.495 9.08 10.495 1 11 C-0.28317892 7.15046324 -0.06643637 4.05261865 0 0 Z" transform="translate(411,155)"/><path fill="#304456" d="M0 0 C1.32 0.66 2.64 1.32 4 2 C3.67 2.99 3.34 3.98 3 5 C2.34 5 1.68 5 1 5 C1.33 5.66 1.66 6.32 2 7 C4.52733235 7.65555119 4.52733235 7.65555119 7 8 C7 8.66 7 9.32 7 10 C1.34388537 10.56561146 -2.22642128 8.71391278 -7 6 C-7 5.67 -7 5.34 -7 5 C-5.35 5 -3.7 5 -2 5 C-1.34 3.35 -0.68 1.7 0 0 Z" transform="translate(431,152)"/><path fill="#4B5B67" d="M0 0 C-0.57363281 0.11472656 -1.14726563 0.22945312 -1.73828125 0.34765625 C-4.20678385 1.05964232 -6.01976098 2.06690328 -8.1875 3.4375 C-8.88230469 3.86933594 -9.57710937 4.30117187 -10.29296875 4.74609375 C-12.1424826 5.90488273 -12.1424826 5.90488273 -13 8 C-13.99 8 -14.98 8 -16 8 C-15.1875 6.0625 -15.1875 6.0625 -14 4 C-13.01 3.67 -12.02 3.34 -11 3 C-10.67 2.01 -10.34 1.02 -10 0 C-6.39513699 -2.80378234 -3.98828054 -1.63156931 0 0 Z" transform="translate(629,180)"/><path fill="#22C2F5" d="M0 0 C1.32 0.66 2.64 1.32 4 2 C4 3.32 4 4.64 4 6 C0.7 6 -2.6 6 -6 6 C-6 5.01 -6 4.02 -6 3 C-6.99 2.67 -7.98 2.34 -9 2 C-8.01 1.67 -7.02 1.34 -6 1 C-3.3125 2.9375 -3.3125 2.9375 -1 5 C-0.67 3.35 -0.34 1.7 0 0 Z" transform="translate(42,169)"/><path fill="#01C4FB" d="M0 0 C1.125 4.75 1.125 4.75 0 7 C-3.82946843 5.54744301 -5.12050295 3.57104439 -7 0 C-4.3333581 -1.33332095 -2.83319697 -0.67102033 0 0 Z" transform="translate(41,167)"/><path fill="#70CDEB" d="M0 0 C0.66 0.99 1.32 1.98 2 3 C1.01 3.33 0.02 3.66 -1 4 C-0.67 8.95 -0.34 13.9 0 19 C0.99 19.33 1.98 19.66 3 20 C3 20.66 3 21.32 3 22 C1.0625 21.625 1.0625 21.625 -1 21 C-2.5720124 17.85597519 -2.18446744 14.51052603 -2.1875 11.0625 C-2.19974609 10.33353516 -2.21199219 9.60457031 -2.22460938 8.85351562 C-2.23512685 5.0286609 -2.17095624 3.25643436 0 0 Z" transform="translate(34,126)"/><path fill="#63707C" d="M0 0 C0.66 0.33 1.32 0.66 2 1 C2.0871747 4.74985325 2.14045003 8.49944555 2.1875 12.25 C2.22520508 13.84521484 2.22520508 13.84521484 2.26367188 15.47265625 C2.27333984 16.49746094 2.28300781 17.52226562 2.29296875 18.578125 C2.3086792 19.52075195 2.32438965 20.46337891 2.34057617 21.43457031 C1.94383071 24.42310174 0.98295729 25.77689217 -1 28 C-1.042721 26.33388095 -1.04063832 24.66617115 -1 23 C-0.67 22.67 -0.34 22.34 0 22 C0.08700342 20.36527118 0.10701063 18.72685945 0.09765625 17.08984375 C0.09282227 15.60581055 0.09282227 15.60581055 0.08789062 14.09179688 C0.07951172 13.05087891 0.07113281 12.00996094 0.0625 10.9375 C0.05798828 9.89271484 0.05347656 8.84792969 0.04882812 7.77148438 C0.03699913 5.1809334 0.02051689 2.59049441 0 0 Z" transform="translate(245,160)"/><path fill="#576572" d="M0 0 C0.66 0.33 1.32 0.66 2 1 C0.6875 2.5 0.6875 2.5 -1 4 C-1.99 4 -2.98 4 -4 4 C-4.226875 4.598125 -4.45375 5.19625 -4.6875 5.8125 C-6.33811133 8.56351888 -8.1972081 9.52484637 -11 11 C-11.33 10.34 -11.66 9.68 -12 9 C-11.34 9 -10.68 9 -10 9 C-9.67 8.01 -9.34 7.02 -9 6 C-8.34 6 -7.68 6 -7 6 C-7 5.34 -7 4.68 -7 4 C-1.7265625 0.77734375 -1.7265625 0.77734375 0 0 Z" transform="translate(592,142)"/><path fill="#81DAF2" d="M0 0 C1.93559313 -0.13504138 3.873872 -0.23201129 5.8125 -0.3125 C6.89144531 -0.37050781 7.97039062 -0.42851563 9.08203125 -0.48828125 C12 0 12 0 13.875 2.15625 C15.11241337 5.28415601 15.30848573 7.46522818 15.1875 10.8125 C15.16042969 11.78832031 15.13335937 12.76414063 15.10546875 13.76953125 C15.07066406 14.50558594 15.03585938 15.24164063 15 16 C14.67 16 14.34 16 14 16 C13.93941406 15.40832031 13.87882813 14.81664062 13.81640625 14.20703125 C13.69072266 13.02173828 13.69072266 13.02173828 13.5625 11.8125 C13.48128906 11.03519531 13.40007812 10.25789062 13.31640625 9.45703125 C12.99402379 6.95359214 12.49501895 4.47509476 12 2 C8.04 1.67 4.08 1.34 0 1 C0 0.67 0 0.34 0 0 Z" transform="translate(120,126)"/><path fill="#2CC0F4" d="M0 0 C0.33 0 0.66 0 1 0 C1 4.29 1 8.58 1 13 C-0.32 13.33 -1.64 13.66 -3 14 C-3 13.34 -3 12.68 -3 12 C-2.01 12 -1.02 12 0 12 C0 11.01 0 10.02 0 9 C-0.99 9 -1.98 9 -3 9 C-2.67 7.35 -2.34 5.7 -2 4 C-1.34 4 -0.68 4 0 4 C0 2.68 0 1.36 0 0 Z" transform="translate(137,160)"/><path fill="#455260" d="M0 0 C1.32 0.33 2.64 0.66 4 1 C2.62085075 2.06365759 1.22085398 3.10032483 -0.1875 4.125 C-0.96480469 4.70507812 -1.74210938 5.28515625 -2.54296875 5.8828125 C-5 7 -5 7 -7.80078125 6.1796875 C-8.88939453 5.59574219 -8.88939453 5.59574219 -10 5 C-10 4.67 -10 4.34 -10 4 C-5.545 3.505 -5.545 3.505 -1 3 C-0.67 2.01 -0.34 1.02 0 0 Z" transform="translate(630,161)"/><path fill="#4C5967" d="M0 0 C0.66 0.33 1.32 0.66 2 1 C-0.3833861 4.14947449 -2.55084975 6.9972676 -6 9 C-6.99 8.67 -7.98 8.34 -9 8 C-8.67 7.34 -8.34 6.68 -8 6 C-7.34 6 -6.68 6 -6 6 C-6 5.34 -6 4.68 -6 4 C-4.03852126 2.61061923 -2.03833424 1.2739589 0 0 Z" transform="translate(517,142)"/><path fill="#657381" d="M0 0 C1.98 0.66 3.96 1.32 6 2 C5.67 6.29 5.34 10.58 5 15 C4.67 15 4.34 15 4 15 C3.96261719 14.33613281 3.92523438 13.67226562 3.88671875 12.98828125 C3.5100897 7.92963621 3.18794705 4.15819181 0 0 Z" transform="translate(294,162)"/><path fill="#071727" d="M0 0 C2 2 2 2 2.22705078 3.87939453 C2.21657715 4.62302246 2.20610352 5.36665039 2.1953125 6.1328125 C2.18886719 6.93847656 2.18242188 7.74414062 2.17578125 8.57421875 C2.15902344 9.41597656 2.14226563 10.25773438 2.125 11.125 C2.11597656 11.97449219 2.10695313 12.82398438 2.09765625 13.69921875 C2.07405647 15.79959884 2.03818483 17.89983444 2 20 C1.67 20 1.34 20 1 20 C0.34 17.69 -0.32 15.38 -1 13 C-0.67 12.67 -0.34 12.34 0 12 C0.07244053 9.98035801 0.08377188 7.95832876 0.0625 5.9375 C0.05347656 4.83277344 0.04445313 3.72804687 0.03515625 2.58984375 C0.02355469 1.73519531 0.01195312 0.88054687 0 0 Z" transform="translate(660,180)"/><path fill="#05192C" d="M0 0 C2.29013653 3.4352048 2.17842973 4.985331 2 9 C0.68 8.67 -0.64 8.34 -2 8 C-2.125 5.125 -2.125 5.125 -2 2 C-1.34 1.34 -0.68 0.68 0 0 Z" transform="translate(477,173)"/><path fill="#495A67" d="M0 0 C0.99 0.495 0.99 0.495 2 1 C2 1.66 2 2.32 2 3 C2.66 3 3.32 3 4 3 C5.4606285 5.64738916 6 6.89448334 6 10 C5.01 10 4.02 10 3 10 C2.49596232 8.70990357 1.99690074 7.41786211 1.5 6.125 C1.2215625 5.40570313 0.943125 4.68640625 0.65625 3.9453125 C0 2 0 2 0 0 Z" transform="translate(631,148)"/><path fill="#4F5F6F" d="M0 0 C1.69752187 0.25245197 3.38471545 0.57645775 5.0625 0.9375 C5.98160156 1.13214844 6.90070312 1.32679688 7.84765625 1.52734375 C8.91306641 1.76130859 8.91306641 1.76130859 10 2 C10 2.33 10 2.66 10 3 C9.39671875 3.12117187 8.7934375 3.24234375 8.171875 3.3671875 C7.37265625 3.53476563 6.5734375 3.70234375 5.75 3.875 C4.56664062 4.11863281 4.56664062 4.11863281 3.359375 4.3671875 C1.03168856 4.99150075 -0.89031952 5.84838542 -3 7 C-3 6.01 -3 5.02 -3 4 C-2.01 4 -1.02 4 0 4 C-0.33 3.01 -0.66 2.02 -1 1 C-0.67 0.67 -0.34 0.34 0 0 Z" transform="translate(601,156)"/><path fill="#8893A0" d="M0 0 C6.27 0 12.54 0 19 0 C19 0.33 19 0.66 19 1 C17.81921875 1.04898438 16.6384375 1.09796875 15.421875 1.1484375 C13.86456063 1.22348879 12.30727009 1.29903561 10.75 1.375 C9.97269531 1.4059375 9.19539062 1.436875 8.39453125 1.46875 C2.92620093 1.72658242 2.92620093 1.72658242 -2 4 C-1.34 2.68 -0.68 1.36 0 0 Z" transform="translate(679,141)"/><path fill="#1FC1F3" d="M0 0 C0.33 0 0.66 0 1 0 C1.08159574 4.16138263 0.98248524 7.9472484 0 12 C-0.99 12 -1.98 12 -3 12 C-3 9.36 -3 6.72 -3 4 C-2.34 4 -1.68 4 -1 4 C-0.67 2.68 -0.34 1.36 0 0 Z" transform="translate(132,134)"/><path fill="#67C5E6" d="M0 0 C0.99 0.33 1.98 0.66 3 1 C2.01 2.485 2.01 2.485 1 4 C0.34 4 -0.32 4 -1 4 C-1 8.29 -1 12.58 -1 17 C-1.33 17 -1.66 17 -2 17 C-2.05398987 14.72942623 -2.09278742 12.45848712 -2.125 10.1875 C-2.14820312 8.92292969 -2.17140625 7.65835938 -2.1953125 6.35546875 C-2 3 -2 3 0 0 Z" transform="translate(34,210)"/><path fill="#0F253C" d="M0 0 C1.32 0.33 2.64 0.66 4 1 C4 1.66 4 2.32 4 3 C5.32 3.66 6.64 4.32 8 5 C5.45297384 6.27351308 4.5717055 5.80191925 1.875 5.0625 C1.15054687 4.86785156 0.42609375 4.67320312 -0.3203125 4.47265625 C-0.87460937 4.31667969 -1.42890625 4.16070312 -2 4 C-1.34 2.68 -0.68 1.36 0 0 Z" transform="translate(432,155)"/><path fill="#516070" d="M0 0 C0.928125 0.33 1.85625 0.66 2.8125 1 C5.92029291 2.14967004 5.92029291 2.14967004 9 2 C5.535 4.97 5.535 4.97 2 8 C2.33 6.35 2.66 4.7 3 3 C2.01 3 1.02 3 0 3 C0 2.01 0 1.02 0 0 Z" transform="translate(196,141)"/><path fill="#576773" d="M0 0 C-3.00617269 3.00617269 -5.82381598 2.59585316 -10 3 C-10.33 3.99 -10.66 4.98 -11 6 C-11.99 5.67 -12.98 5.34 -14 5 C-10.39689122 0.59620038 -5.480803 -0.32240018 0 0 Z" transform="translate(413,140)"/><path fill="#404C60" d="M0 0 C0.5775 0.37125 1.155 0.7425 1.75 1.125 C-2.10756507 3.27805957 -4.80129785 4.51753254 -9.25 4.125 C-4.06343284 -1.58022388 -4.06343284 -1.58022388 0 0 Z" transform="translate(230.25,201.875)"/><path fill="#495967" d="M0 0 C1.423125 0.2784375 1.423125 0.2784375 2.875 0.5625 C5.89868793 1.28686632 5.89868793 1.28686632 8 0 C9.32 1.65 10.64 3.3 12 5 C7.25081338 4.53439347 3.89217595 3.83067342 0 1 C0 0.67 0 0.34 0 0 Z" transform="translate(265,201)"/><path fill="#405160" d="M0 0 C0.66 0 1.32 0 2 0 C2 0.66 2 1.32 2 2 C2.66 2 3.32 2 4 2 C4 2.66 4 3.32 4 4 C4.99 4.33 5.98 4.66 7 5 C6.67 5.99 6.34 6.98 6 8 C3.9375 8.6875 3.9375 8.6875 2 9 C2 7.35 2 5.7 2 4 C1.34 3.67 0.68 3.34 0 3 C0 2.01 0 1.02 0 0 Z" transform="translate(273,181)"/><path fill="#394B5B" d="M0 0 C0.66 0.99 1.32 1.98 2 3 C2.66 3.33 3.32 3.66 4 4 C3.34 5.65 2.68 7.3 2 9 C0.68 8.67 -0.64 8.34 -2 8 C-1.34 5.36 -0.68 2.72 0 0 Z" transform="translate(226,174)"/><path fill="#435164" d="M0 0 C0.66 0 1.32 0 2 0 C2.625 2.875 2.625 2.875 3 6 C2.34 6.66 1.68 7.32 1 8 C-0.65 6.02 -2.3 4.04 -4 2 C-2.68 2 -1.36 2 0 2 C0 1.34 0 0.68 0 0 Z" transform="translate(666,177)"/><path fill="#415363" d="M0 0 C0.66 0.66 1.32 1.32 2 2 C1.625 4.125 1.625 4.125 1 6 C0.01 6 -0.98 6 -2 6 C-2 7.32 -2 8.64 -2 10 C-2.66 10 -3.32 10 -4 10 C-3.67 8.02 -3.34 6.04 -3 4 C-2.34 4 -1.68 4 -1 4 C-0.67 2.68 -0.34 1.36 0 0 Z" transform="translate(579,153)"/><path fill="#03C6F5" d="M0 0 C1.32 0 2.64 0 4 0 C3.67 1.65 3.34 3.3 3 5 C1.68 4.67 0.36 4.34 -1 4 C-0.67 2.68 -0.34 1.36 0 0 Z" transform="translate(37,226)"/><path fill="#2ABEFB" d="M0 0 C1.98 0.495 1.98 0.495 4 1 C3.67 2.32 3.34 3.64 3 5 C1.68 5.33 0.36 5.66 -1 6 C-0.67 4.02 -0.34 2.04 0 0 Z" transform="translate(85,214)"/><path fill="#12C3F3" d="M0 0 C1.5 1.375 1.5 1.375 3 3 C3 3.66 3 4.32 3 5 C1.02 5.33 -0.96 5.66 -3 6 C-3 4.68 -3 3.36 -3 2 C-2.01 1.34 -1.02 0.68 0 0 Z" transform="translate(36,184)"/><path fill="#04192C" d="M0 0 C0.66 1.32 1.32 2.64 2 4 C-0.60582371 4.93065133 -1.64198224 5.14917407 -4.25 4.0625 C-4.8275 3.711875 -5.405 3.36125 -6 3 C-4.02 2.01 -2.04 1.02 0 0 Z" transform="translate(219,154)"/><path fill="#6B7C8A" d="M0 0 C0.90105469 0.02707031 1.80210937 0.05414063 2.73046875 0.08203125 C3.76107422 0.13423828 3.76107422 0.13423828 4.8125 0.1875 C4.8125 0.5175 4.8125 0.8475 4.8125 1.1875 C1.8425 1.1875 -1.1275 1.1875 -4.1875 1.1875 C-4.5175 2.8375 -4.8475 4.4875 -5.1875 6.1875 C-6.1775 5.1975 -7.1675 4.2075 -8.1875 3.1875 C-5.67753317 0.01043235 -3.96125134 -0.15433447 0 0 Z" transform="translate(305.1875,140.8125)"/><path fill="#76828C" d="M0 0 C-7.28571429 4.42857143 -7.28571429 4.42857143 -12 5 C-8.77464852 1.23708994 -4.90542108 -1.63514036 0 0 Z" transform="translate(275,141)"/><path fill="#3D4F5D" d="M0 0 C0.99 0.33 1.98 0.66 3 1 C1.02 3.31 -0.96 5.62 -3 8 C-3.33 7.01 -3.66 6.02 -4 5 C-3.34 5 -2.68 5 -2 5 C-1.7834375 4.0409375 -1.7834375 4.0409375 -1.5625 3.0625 C-1 1 -1 1 0 0 Z" transform="translate(364,221)"/><path fill="#01C3FA" d="M0 0 C1.65 0 3.3 0 5 0 C5 1.32 5 2.64 5 4 C3.35 3.67 1.7 3.34 0 3 C0 2.01 0 1.02 0 0 Z" transform="translate(41,190)"/><path fill="#414E5D" d="M0 0 C0.66 0 1.32 0 2 0 C2.8723412 2.99480917 3.10829766 5.63575911 3.0625 8.75 C3.05347656 9.54921875 3.04445313 10.3484375 3.03515625 11.171875 C3.01775391 12.07679688 3.01775391 12.07679688 3 13 C2.67 13 2.34 13 2 13 C1.87625 11.88625 1.7525 10.7725 1.625 9.625 C1.3534187 5.96896323 1.3534187 5.96896323 -1 4 C-0.625 1.875 -0.625 1.875 0 0 Z" transform="translate(444,176)"/><path fill="#53606A" d="M0 0 C0.99 0.33 1.98 0.66 3 1 C2.67 3.97 2.34 6.94 2 10 C-0.58787727 7.41212273 -0.62709152 5.57992139 -1 2 C-0.67 1.34 -0.34 0.68 0 0 Z" transform="translate(322,142)"/><path fill="#051B2E" d="M0 0 C-2.76223278 2.76223278 -5.20706617 2.57856291 -9 3 C-9.33 2.01 -9.66 1.02 -10 0 C-6.30458414 -0.95024979 -3.69541586 -0.95024979 0 0 Z" transform="translate(616,188)"/><path fill="#28C0F4" d="M0 0 C0.33 0.66 0.66 1.32 1 2 C1.99 2 2.98 2 4 2 C3.67 2.99 3.34 3.98 3 5 C1.35 4.67 -0.3 4.34 -2 4 C-2 3.01 -2 2.02 -2 1 C-1.34 0.67 -0.68 0.34 0 0 Z" transform="translate(35,156)"/><path fill="#435361" d="M0 0 C0.66 0.33 1.32 0.66 2 1 C1.34 3.97 0.68 6.94 0 10 C-0.33 10 -0.66 10 -1 10 C-1.33 7.03 -1.66 4.06 -2 1 C-1.34 0.67 -0.68 0.34 0 0 Z" transform="translate(388,148)"/><path fill="#556872" d="M0 0 C0 1.66666667 0 3.33333333 0 5 C-3.46153846 8 -3.46153846 8 -6 8 C-4.55746343 4.63408134 -2.66735273 2.48952921 0 0 Z" transform="translate(262,146)"/><path fill="#7ED0ED" d="M0 0 C0.721875 0.474375 1.44375 0.94875 2.1875 1.4375 C4.89475226 2.94152903 6.96194275 3.56599182 10 4 C10 4.33 10 4.66 10 5 C7.36 5 4.72 5 2 5 C1.34 3.35 0.68 1.7 0 0 Z" transform="translate(32,227)"/><path fill="#061A2C" d="M0 0 C0.66 1.32 1.32 2.64 2 4 C0.68 3.67 -0.64 3.34 -2 3 C-2 3.66 -2 4.32 -2 5 C-3.32 5 -4.64 5 -6 5 C-5.67 4.01 -5.34 3.02 -5 2 C-2.4375 0.8125 -2.4375 0.8125 0 0 Z" transform="translate(293,185)"/><path fill="#031A2F" d="M0 0 C1.98 0 3.96 0 6 0 C5.67 1.32 5.34 2.64 5 4 C2.03 3.505 2.03 3.505 -1 3 C-0.67 2.01 -0.34 1.02 0 0 Z" transform="translate(400,185)"/><path fill="#465363" d="M0 0 C1.65 0 3.3 0 5 0 C5 0.99 5 1.98 5 3 C6.32 3 7.64 3 9 3 C9 3.66 9 4.32 9 5 C5.22454612 3.90931332 2.52956528 3.0916909 0 0 Z" transform="translate(513,200)"/><path fill="#646E7A" d="M0 0 C0.804375 0.12375 1.60875 0.2475 2.4375 0.375 C3.0975 1.365 3.7575 2.355 4.4375 3.375 C1.1375 3.375 -2.1625 3.375 -5.5625 3.375 C-2.5625 0.375 -2.5625 0.375 0 0 Z" transform="translate(492.5625,183.625)"/><path fill="#4C5B6C" d="M0 0 C0.66 0.33 1.32 0.66 2 1 C1.34 3.97 0.68 6.94 0 10 C-0.33 9.01 -0.66 8.02 -1 7 C-1.99 6.67 -2.98 6.34 -4 6 C-3.01 5.34 -2.02 4.68 -1 4 C-0.27617533 1.94074861 -0.27617533 1.94074861 0 0 Z" transform="translate(381,171)"/><path fill="#687782" d="M0 0 C4.31392226 0.4793247 6.16569547 1.7457985 9 5 C8.01 5.495 8.01 5.495 7 6 C7 5.34 7 4.68 7 4 C5.68 4.33 4.36 4.66 3 5 C2.87625 4.360625 2.7525 3.72125 2.625 3.0625 C2.315625 2.0415625 2.315625 2.0415625 2 1 C1.34 0.67 0.68 0.34 0 0 Z" transform="translate(434,167)"/><path fill="#293E4E" d="M0 0 C0.33 0.66 0.66 1.32 1 2 C3.02463255 2.65213292 3.02463255 2.65213292 5 3 C3.68 4.32 2.36 5.64 1 7 C1 6.34 1 5.68 1 5 C0.34 4.67 -0.32 4.34 -1 4 C-0.67 2.68 -0.34 1.36 0 0 Z" transform="translate(683,160)"/><path fill="#4D5B6A" d="M0 0 C-1.32 1.32 -2.64 2.64 -4 4 C-4.99 3.67 -5.98 3.34 -7 3 C-6.67 2.01 -6.34 1.02 -6 0 C-3.50907189 -1.24546405 -2.58919267 -0.7767578 0 0 Z" transform="translate(529,161)"/><path fill="#24C0FA" d="M0 0 C1.98 0 3.96 0 6 0 C5.67 0.99 5.34 1.98 5 3 C3.35 3 1.7 3 0 3 C0 2.01 0 1.02 0 0 Z" transform="translate(39,214)"/><path fill="#4B5E6A" d="M0 0 C2.31 0.33 4.62 0.66 7 1 C6.360625 1.309375 5.72125 1.61875 5.0625 1.9375 C3.06389179 2.8345163 3.06389179 2.8345163 2 4 C0.00041636 4.04080783 -2.00045254 4.04254356 -4 4 C-4 3.67 -4 3.34 -4 3 C-2.35 3 -0.7 3 1 3 C0.67 2.01 0.34 1.02 0 0 Z" transform="translate(617,202)"/><path fill="#576571" d="M0 0 C1.875 0.1875 1.875 0.1875 4 1 C5.25 3.5625 5.25 3.5625 6 6 C5.34 6 4.68 6 4 6 C4 5.34 4 4.68 4 4 C3.01 3.67 2.02 3.34 1 3 C0.67 2.01 0.34 1.02 0 0 Z" transform="translate(507,194)"/><path fill="#28C0F5" d="M0 0 C1.98 0 3.96 0 6 0 C6 0.66 6 1.32 6 2 C4.02 2.66 2.04 3.32 0 4 C0 2.68 0 1.36 0 0 Z" transform="translate(33,190)"/><path fill="#3C4958" d="M0 0 C0.66 0.33 1.32 0.66 2 1 C2.625 3.5625 2.625 3.5625 3 6 C2.01 6 1.02 6 0 6 C-0.38218767 4.34385343 -0.71395102 2.67542976 -1 1 C-0.67 0.67 -0.34 0.34 0 0 Z" transform="translate(394,167)"/><path fill="#061B2D" d="M0 0 C0.99 0.33 1.98 0.66 3 1 C2.360625 1.556875 1.72125 2.11375 1.0625 2.6875 C-1.19680987 5.22066561 -1.63149047 6.68341424 -2 10 C-2.33 10 -2.66 10 -3 10 C-3.36923077 4.58461538 -3.36923077 4.58461538 -1.5 1.625 C-1.005 1.08875 -0.51 0.5525 0 0 Z" transform="translate(395,151)"/><path fill="#5C6E7B" d="M0 0 C6.52307692 0.61538462 6.52307692 0.61538462 8.9375 2.5625 C9.288125 3.036875 9.63875 3.51125 10 4 C3.47692308 3.38461538 3.47692308 3.38461538 1.0625 1.4375 C0.711875 0.963125 0.36125 0.48875 0 0 Z" transform="translate(287,140)"/><path fill="#FFF" transform="translate(0,0)"/><path fill="#FFF" transform="translate(0,0)"/><path fill="#FFF" transform="translate(0,0)"/><path fill="#FFF" transform="translate(0,0)"/><path fill="#FFF" transform="translate(0,0)"/><path fill="#FFF" transform="translate(0,0)"/><path fill="#FFF" transform="translate(0,0)"/><path fill="#FFF" transform="translate(0,0)"/><path fill="#FFF" transform="translate(0,0)"/><path fill="#FFF" transform="translate(0,0)"/><path fill="#FFF" transform="translate(0,0)"/><path fill="#FFF" transform="translate(0,0)"/><path fill="#FFF" transform="translate(0,0)"/><path fill="#FFF" transform="translate(0,0)"/><path fill="#FFF" transform="translate(0,0)"/><path fill="#FFF" transform="translate(0,0)"/><path fill="#FFF" transform="translate(0,0)"/><path fill="#FFF" transform="translate(0,0)"/><path fill="#FFF" transform="translate(0,0)"/><path fill="#FFF" transform="translate(0,0)"/><path fill="#FFF" transform="translate(0,0)"/><path fill="#FFF" transform="translate(0,0)"/><path fill="#FFF" transform="translate(0,0)"/><path fill="#FFF" transform="translate(0,0)"/><path fill="#FFF" transform="translate(0,0)"/><path fill="#FFF" transform="translate(0,0)"/><path fill="#FFF" transform="translate(0,0)"/><path fill="#FFF" transform="translate(0,0)"/><path fill="#FFF" transform="translate(0,0)"/><path fill="#FFF" transform="translate(0,0)"/><path fill="#FFF" transform="translate(0,0)"/><path fill="#FFF" transform="translate(0,0)"/><path fill="#FFF" transform="translate(0,0)"/><path fill="#FFF" transform="translate(0,0)"/><path fill="#FFF" transform="translate(0,0)"/><path fill="#FFF" transform="translate(0,0)"/><path fill="#FFF" transform="translate(0,0)"/><path fill="#FFF" transform="translate(0,0)"/><path fill="#FFF" transform="translate(0,0)"/><path fill="#FFF" transform="translate(0,0)"/><path fill="#FFF" transform="translate(0,0)"/><path fill="#FFF" transform="translate(0,0)"/><path fill="#FFF" transform="translate(0,0)"/><path fill="#FFF" transform="translate(0,0)"/><path fill="#FFF" transform="translate(0,0)"/><path fill="#FFF" transform="translate(0,0)"/><path fill="#FFF" transform="translate(0,0)"/><path fill="#FFF" transform="translate(0,0)"/><path fill="#FFF" transform="translate(0,0)"/><path fill="#FFF" transform="translate(0,0)"/><path fill="#FFF" transform="translate(0,0)"/><path fill="#FFF" transform="translate(0,0)"/><path fill="#FFF" transform="translate(0,0)"/><path fill="#FFF" transform="translate(0,0)"/><path fill="#FFF" transform="translate(0,0)"/><path fill="#FFF" transform="translate(0,0)"/><path fill="#FFF" transform="translate(0,0)"/><path fill="#FFF" transform="translate(0,0)"/><path fill="#FFF" transform="translate(0,0)"/><path fill="#FFF" transform="translate(0,0)"/><path fill="#FFF" transform="translate(0,0)"/><path fill="#FFF" transform="translate(0,0)"/><path fill="#FFF" transform="translate(0,0)"/><path fill="#FFF" transform="translate(0,0)"/><path fill="#FFF" transform="translate(0,0)"/><path fill="#FFF" transform="translate(0,0)"/><path fill="#FFF" transform="translate(0,0)"/><path fill="#FFF" transform="translate(0,0)"/><path fill="#FFF" transform="translate(0,0)"/><path fill="#FFF" transform="translate(0,0)"/><path fill="#FFF" transform="translate(0,0)"/><path fill="#FFF" transform="translate(0,0)"/><path fill="#FFF" transform="translate(0,0)"/><path fill="#FFF" transform="translate(0,0)"/><path fill="#FFF" transform="translate(0,0)"/><path fill="#FFF" transform="translate(0,0)"/><path fill="#FFF" transform="translate(0,0)"/><path fill="#FFF" transform="translate(0,0)"/><path fill="#FFF" transform="translate(0,0)"/><path fill="#FFF" transform="translate(0,0)"/><path fill="#FFF" transform="translate(0,0)"/><path fill="#FFF" transform="translate(0,0)"/></svg>