<svg width="20" height="20" viewBox="0 0 20 20" fill="none" xmlns="http://www.w3.org/2000/svg">
<circle cx="10" cy="10" r="10" fill="#F0B90B"/>
<path d="M6.43768 5.39697L9.9602 3.34656L13.4827 5.39697L12.1877 6.15445L9.9602 4.86151L7.73273 6.15445L6.43768 5.39697ZM13.4827 7.98284L12.1877 7.22536L9.9602 8.5183L7.73273 7.22536L6.43768 7.98284V9.4978L8.66515 10.7907V13.3766L9.9602 14.1341L11.2552 13.3766V10.7907L13.4827 9.4978V7.98284ZM13.4827 12.0837V10.5687L12.1877 11.3262V12.8411L13.4827 12.0837ZM14.4022 12.6191L12.1747 13.9121V15.427L15.6972 13.3766V9.27578L14.4022 10.0333V12.6191ZM13.1072 6.68991L14.4022 7.44738V8.96234L15.6972 8.20486V6.68991L14.4022 5.93243L13.1072 6.68991ZM8.66515 14.4606V15.9755L9.9602 16.733L11.2552 15.9755V14.4606L9.9602 15.2181L8.66515 14.4606ZM6.43768 12.0837L7.73273 12.8411V11.3262L6.43768 10.5687V12.0837ZM8.66515 6.68991L9.9602 7.44738L11.2552 6.68991L9.9602 5.93243L8.66515 6.68991ZM5.51819 7.44738L6.81323 6.68991L5.51819 5.93243L4.22314 6.68991V8.20486L5.51819 8.96234V7.44738ZM5.51819 10.0333L4.22314 9.27578V13.3766L7.74566 15.427V13.9121L5.51819 12.6191V10.0333Z" fill="white"/>
</svg>
